<svg id="b352fce2-caf4-4088-9e0b-74b6c034f986" data-name="‘лой_1" xmlns="http://www.w3.org/2000/svg" viewBox="0 0 2759.78 1726.07">
  <title>chat</title>
  <g>
    <path d="M2993.4,1181.34q-.29,18.72-1.33,37.27-.37,6.92-.85,13.79-1,14.6-2.43,29-1,10.77-2.33,21.46a1156.73,1156.73,0,0,1-27,144.71,576,576,0,0,1-89.15,194.07q-7.51,10.56-15.48,20.72-16.23,20.71-34.22,39.64a544.39,544.39,0,0,1-47.2,44.16c-91.56,76-206.48,120.29-328.95,120.33l-340.71.11-490.15.17-28.46,0-1090.89.37c-107.9,0-193.53-66.53-234.38-156.34a291,291,0,0,1-26.16-120.32c0-1,0-2,0-3.07s0-1.81,0-2.72q.08-3.26.21-6.53.06-1.54.15-3.09c.06-1.09.12-2.18.19-3.28s.13-1.94.21-2.9l.27-3.33c.26-3,.58-6,.94-9,.12-1,.24-2,.37-3q.45-3.36,1-6.72c.14-.91.29-1.82.44-2.72.34-2.06.7-4.13,1.09-6.19.35-1.85.71-3.7,1.1-5.55.27-1.29.55-2.58.83-3.87q.68-3,1.39-5.91l0-.12.78-3.08c.27-1,.54-2,.82-3.08q2.08-7.7,4.62-15.35c1-3,2.09-6.11,3.22-9.15q2.32-6.27,5-12.49c.44-1,.88-2.07,1.34-3.1s.91-2.07,1.38-3.1.94-2.06,1.42-3.09,1-2,1.46-3.08,1-2,1.5-3.07q1.41-2.84,2.89-5.66.42-.82.87-1.65c1.3-2.44,2.64-4.88,4-7.3.24-.43.49-.86.74-1.29.45-.79.9-1.58,1.37-2.36.59-1,1.18-2,1.79-3l3.4-5.62,3.32-5.48q5.82-9.58,11.65-19.26l4-6.7q5.64-9.48,11.19-19.14c.69-1.2,1.37-2.4,2.05-3.6l.21-.37q2.89-5.09,5.72-10.25c.59-1.07,1.18-2.14,1.75-3.21,1.07-2,2.12-3.92,3.17-5.89.52-1,1-2,1.55-2.94l1.14-2.17c.49-.94,1-1.88,1.46-2.83q1-2,2-4c1.25-2.45,2.47-4.91,3.68-7.39.78-1.58,1.54-3.17,2.3-4.77.63-1.32,1.26-2.64,1.87-4q2-4.2,3.85-8.45c.55-1.22,1.09-2.45,1.62-3.68q2.1-4.79,4.09-9.67c.37-.9.74-1.81,1.1-2.72q1.68-4.14,3.26-8.35c.33-.85.65-1.7,1-2.56q2.65-7.14,5.09-14.5c.35-1.06.7-2.13,1-3.2q1-3,1.92-6.14c.11-.34.21-.68.32-1,.32-1.09.65-2.19,1-3.29s.68-2.35,1-3.53.67-2.37,1-3.56c.65-2.38,1.28-4.77,1.88-7.19.3-1.21.6-2.42.89-3.63s.58-2.44.87-3.66.56-2.45.83-3.69c.21-1,.43-2,.63-2.93.06-.26.12-.52.17-.78s.06-.24.08-.37c.21-1,.41-2,.61-3s.36-1.77.53-2.67q.18-.88.33-1.77c.23-1.15.44-2.3.64-3.46.07-.35.14-.7.19-1.06.22-1.18.42-2.37.61-3.57.12-.68.24-1.36.34-2,.18-1.06.35-2.13.5-3.2.07-.41.14-.83.19-1.25.21-1.35.41-2.71.59-4.07,0-.38.11-.76.16-1.15.21-1.55.41-3.12.6-4.69.22-1.72.42-3.44.6-5.18a.41.41,0,0,0,0-.11c.4-3.51.73-7,1-10.63s.55-7.23.74-10.9c.11-1.83.19-3.67.26-5.53q.63-15.21.11-31.33c-.06-1.74-.13-3.5-.21-5.26q-.07-2-.18-3.93c-1.64-31-6.59-64.53-15.66-101.29-29.61-120.08-32.33-229.16-14-326.57q2.48-13.26,5.5-26.23a623.92,623.92,0,0,1,19.37-66.56q8.26-23.41,18.24-45.74a620,620,0,0,1,61.76-107.8c85.26-119.53,210.31-207.41,351-260.89,304.37-115.72,682.05-70.51,889,163.52C1870.76,550.06,2312,365.33,2639.78,519.4c63.28,29.74,122.33,72.11,174.46,132.34q12.62,14.58,24.67,30.57c23.71,31.48,45.76,67.2,65.86,107.73.85,1.71,1.71,3.44,2.55,5.17A930.36,930.36,0,0,1,2954,911.49q9,27.42,15.8,54.92c.91,3.63,1.77,7.25,2.62,10.87a817.06,817.06,0,0,1,19.94,144c0,.41,0,.83.06,1.23q.53,10.8.8,21.55c0,.17,0,.35,0,.52Q2993.71,1163,2993.4,1181.34Z" transform="translate(-233.75 -121.13)" style="fill: #f1e6ff"/>
    <path d="M2993.5,1172.31q0,4.51-.1,9-.29,18.72-1.33,37.27-.37,6.92-.85,13.79-1,14.6-2.43,29-1,10.77-2.33,21.46a1156.73,1156.73,0,0,1-27,144.71,576,576,0,0,1-89.15,194.07q-7.51,10.56-15.48,20.72-16.23,20.71-34.22,39.64a544.39,544.39,0,0,1-47.2,44.16c-91.56,76-206.48,120.29-328.95,120.33l-340.71.11-490.15.17h-28.39l-802.48-.27c-171-.06-327.28-85.76-425.85-223.26l64.35-151.39L506,1272.58l21.27-50,24.22-57,18.27-43H2992.45q.54,10.8.8,21.55c0,.17,0,.35,0,.52q.12,4.88.18,9.73c0,1.74,0,3.48,0,5.22l0,4.11c0,.62,0,1.25,0,1.87q0,3.15,0,6.28Z" transform="translate(-233.75 -121.13)" style="fill: #d1baf7"/>
    <path d="M2214.73,716.43s26.1-30.64,88.52-27.23c0,0,90.61-51.07,187.24-6.81,0,0,102.71-11,178.78,9.5,50.71,13.64,67.47,28,67.47,28Z" transform="translate(-233.75 -121.13)" style="fill: #f8fcff;opacity: 0.9"/>
    <path d="M1541.67,858.74s40.9-75.41,138.68-67c0,0,142-125.69,293.36-16.76,0,0,160.93-27,280.11,23.37,79.46,33.58,105.7,68.8,105.7,68.8Z" transform="translate(-233.75 -121.13)" style="fill: #f8fcff;opacity: 0.9"/>
    <path d="M1300.22,438.59s16.07-34.3,54.51-30.49c0,0,55.81-57.16,115.31-7.62,0,0,63.26-12.27,110.11,10.63,31.23,15.27,41.55,31.29,41.55,31.29Z" transform="translate(-233.75 -121.13)" style="fill: #f8fcff;opacity: 0.9"/>
    <path d="M1978.52,615.14a40.59,40.59,0,1,1,40.59,40.59A40.59,40.59,0,0,1,1978.52,615.14Z" transform="translate(-233.75 -121.13)" style="fill: #f8fcff;opacity: 0.9"/>
    <path d="M2820.65,1682a544.39,544.39,0,0,1-47.2,44.16c-91.56,76-206.48,120.29-328.95,120.33l-340.71.11-490.15.17H1585.2l-1090.91.38c-107.9,0-193.53-66.53-234.38-156.34a291,291,0,0,1-26.16-120.32c0-1,0-2,0-3.07s0-1.81,0-2.72q.08-3.26.21-6.53.06-1.54.15-3.09c.06-1.09.12-2.18.19-3.28s.13-1.94.21-2.9l.27-3.33q.39-4.51.94-9c.12-1,.24-2,.37-3q.45-3.36,1-6.72c.14-.91.29-1.82.44-2.72.33-2.06.7-4.13,1.09-6.19.35-1.85.71-3.7,1.1-5.55.27-1.29.55-2.58.83-3.87q.68-3,1.39-5.91l0-.12.78-3.08c.27-1,.54-2,.82-3.08q2.07-7.7,4.62-15.35.76-2.31,1.58-4.61c.45-1.28.91-2.55,1.38-3.82l.26-.72.08-.21c.73-2,1.47-3.9,2.25-5.85l.09-.25c.83-2.07,1.67-4.13,2.54-6.18.44-1,.88-2.07,1.34-3.1s.91-2.07,1.38-3.1.94-2.06,1.42-3.09,1-2,1.46-3.08,1-2,1.5-3.07q1.41-2.84,2.89-5.66.42-.82.87-1.65c1.3-2.44,2.64-4.88,4-7.3.24-.43.49-.86.74-1.29.45-.79.9-1.58,1.37-2.36.59-1,1.18-2,1.79-3l3.4-5.62,3.32-5.48q5.82-9.58,11.65-19.26l4-6.7q5.64-9.48,11.19-19.14l2.05-3.6.21-.37q2.88-5.1,5.72-10.25c.59-1.07,1.17-2.14,1.75-3.21,1.07-2,2.12-3.92,3.17-5.89.52-1,1-2,1.55-2.94l1.14-2.17,1.46-2.83q1-2,2-4c1.25-2.45,2.47-4.91,3.68-7.39.78-1.58,1.54-3.17,2.3-4.77.63-1.32,1.25-2.65,1.87-4q2-4.2,3.85-8.45c.55-1.22,1.09-2.45,1.62-3.68q2.1-4.79,4.09-9.67c.37-.9.74-1.81,1.1-2.72q1.68-4.14,3.26-8.35c.33-.85.65-1.7,1-2.56q2.65-7.14,5.09-14.5c.35-1.06.7-2.13,1-3.2q1-3,1.92-6.14c.11-.34.21-.68.32-1,.33-1.09.65-2.19,1-3.29s.68-2.35,1-3.53.67-2.37,1-3.56c.65-2.38,1.28-4.77,1.88-7.19.31-1.2.61-2.41.89-3.63s.59-2.43.87-3.66.56-2.45.83-3.69c.22-1,.43-2,.63-2.93.06-.26.12-.52.17-.78s.06-.24.08-.37c.21-1,.42-2,.61-3s.36-1.78.53-2.67q.18-.88.33-1.77c.23-1.15.44-2.3.64-3.46.07-.35.14-.7.19-1.06.22-1.18.42-2.38.61-3.57.12-.68.23-1.36.34-2,.17-1.06.34-2.13.5-3.2.07-.41.14-.83.19-1.25.21-1.35.4-2.71.59-4.07,0-.38.11-.76.16-1.15.21-1.55.41-3.12.6-4.69.21-1.72.41-3.44.6-5.18a.41.41,0,0,0,0-.11c.39-3.51.72-7,1-10.63s.54-7.23.74-10.9c.1-1.83.18-3.68.26-5.53q.61-15.21.11-31.33c-.06-1.74-.13-3.5-.21-5.26h851.08l5.4,0c3.26,0,7.88.08,13.59.18l9.26.18c8.11.18,17.58.45,27.93.85s21.62.93,33.22,1.63c13.12.79,26.69,1.8,40,3.09,2.62.26,5.22.52,7.81.8l5.86.64q4.05.46,8,1c65.85,8.35,113.36,25,41,58.31-7.78,3.58-23.61,8-43.44,13.26l-2.52.67c-13.09,3.49-27.8,7.35-43,11.62h0q-3.88,1.08-7.8,2.21c-6.1,1.75-12.25,3.56-18.39,5.45-10.62,3.25-21.18,6.7-31.33,10.37-18.22,6.56-35.12,13.79-48.63,21.73-26.68,15.66-40.18,34.1-24.61,55.66a7.14,7.14,0,0,0,.51.64c7.1,8.25,35.78,15.75,80,22.7l2.45.38,5.83.89c24.39,3.64,53,7.13,85,10.5l7.74.8c80.49,8.28,181.06,15.82,288.13,23q21.66,1.47,43.65,2.9l2.86.19,1.79.12c35.07,2.3,70.61,4.57,106.16,6.83,32.3,2,64.6,4.09,96.57,6.13q21.11,1.35,42,2.7,24.43,1.58,48.44,3.16c45.84,3,90.23,6.09,132.06,9.2,19.48,1.45,38.41,2.91,56.67,4.39q15.3,1.23,30,2.49c19.23,1.65,37.58,3.31,54.9,5,123,12,194.08,25.38,160.13,41.71-.45.22-.92.44-1.4.65-6.15,2.75-15.26,5.58-27.57,8.5C2095.91,1537.44,2262.33,1641.15,2820.65,1682Z" transform="translate(-233.75 -121.13)" style="fill: #ffe0b3"/>
    <path d="M2103.79,1846.64l-490.15.17-28.46,0-1090.89.37c-107.9,0-193.53-66.53-234.38-156.34-30.11-66.16-35.93-144.92-8.48-219a288.76,288.76,0,0,1,23.74-49.2c36.16-59.88,75.3-120.65,92-200.15H752.1s23.87,0,56.18,1.24c89.12,3.43,242.41,16.42,135.88,65.43-38,17.49-267.9,54.31-219.76,121s1502.81,84.82,1215.9,152.9C1688,1623,1777.93,1768.44,2103.79,1846.64Z" transform="translate(-233.75 -121.13)" style="fill: #ffe6c5"/>
    <path d="M1693.43,1812.43c-46.19,11-82.18,22.52-108.25,34.4l-1090.89.37c-107.9,0-193.53-66.53-234.38-156.34-30.11-66.16-35.93-144.92-8.48-219H505.22s23.88,0,56.18,1.23c89.13,3.43,242.41,16.42,135.88,65.43-38,17.5-267.9,54.31-219.75,121S1980.33,1744.36,1693.43,1812.43Z" transform="translate(-233.75 -121.13)" style="fill: #fff0e2"/>
    <path d="M599.17,588.16c-1.9-14.89-7.7-27.49-20.22-33.85,0,0-27.29-14.42-49.45-5.89,0,0,2.77,4.1,7.34,10.45-28.66-18.36-64.1-32.21-105.6-32,0,0,10.1,12.21,25.09,28.47a243.11,243.11,0,0,0-68-4.33q-10,22.34-18.24,45.74c6.66,3.16,13.69,6.44,21,9.78,10.64-7.69,24.31-15.47,36.6-17.31a106.45,106.45,0,0,0-16.32,26.36c8.13,3.5,16.42,7,24.83,10.37a234.38,234.38,0,0,0-85.52,37.36q-3,13-5.5,26.23c2.16.22,4.44.46,6.85.69,12.7,1.22,28.55,2.66,46.06,3.83,5.14.37,10.39.64,15.75.92,4.5.3,9,.5,13.57.74.58-.85,1.17-1.81,1.77-2.76,5.48-8.33,13.56-19.24,21.74-24.67,0,0-2.56,16.27-3.95,27.66-.08.15,0,.32-.11.47l1.77,0,.06,0c18.55.53,37.18.44,54.63-.39,1-7.49,2.52-22.14.1-27,0,0,12.68,7.64,13.71,26.1,3.84-.33,7.53-.67,11.08-1.09.73-.07,1.46-.16,2.18-.26a213.23,213.23,0,0,0,27.72-5.16A151.91,151.91,0,0,0,580.6,681c1.24-.53,2.42-1.07,3.58-1.62C585.75,672.9,603.76,624,599.17,588.16Zm-15,91.22c-.26,1-.1,1,.61-.28ZM821.89,783.69c-.84-2.26-1.7-4.49-2.61-6.69a231.83,231.83,0,0,0-21.91-41.61q-5-7.49-10.36-14.38c-.64-.84-1.3-1.67-2-2.49l-.47-.6c-.5-.62-1-1.23-1.51-1.84a246.28,246.28,0,0,0-32.2-32.36c22,1.59,37.89,1.89,37.89,1.89-25.69-32.6-58.59-51.7-90.8-62.68,7.81-.39,12.74-.77,12.74-.77a45.52,45.52,0,0,0-10-16.72c-10.86-11.94-25.38-18.29-25.38-18.29a122,122,0,0,0-19.52-7.09c-27.64-7.28-46,.33-56.59,8.1a53.11,53.11,0,0,0-7.49,6.64c-13.34-27.89-148.21,53.31-115.24,52.29,11.54-.36,45.27-5.29,54.37-6.13-.53,7.89,4.17,12.29,13,14.33a37.93,37.93,0,0,0,7.05.91c-3.21,4.67-11.37,17.44-22.53,37.81-22.73,41.47-57.91,114.46-89.12,214.84C413.93,990,399,1084.81,394,1121.31c-1.23,8.91-1.88,14.35-1.94,15.25,0,0,6.6,6,24.63,7.54a84.41,84.41,0,0,0,30.55-3.19c.23-3,.92-9.81,2.06-19.6,5-43.34,18.7-145.54,39.09-240.46,20.62-96,51.18-158.5,69.81-192.26A151.91,151.91,0,0,0,580.6,681a203.39,203.39,0,0,0,15.78,30.91q1.68,2.79,3.54,5.65c1.17,1.82,2.4,3.67,3.66,5.56,15.08-10.67,29-5.53,29-5.53-5.31,1.14-15.85,11.45-21.07,16.9,10.23,14.19,21.75,28.82,33.72,43v.08c.39.45.76.9,1.14,1.35.07-.14.22-.22.31-.37,1.77-1.81,3.7-3.81,5.61-5.83,6.79-7.12,13.56-14.49,13.56-14.49.83,9.78-2.65,22.89-5.76,32.37-.37,1.07-.76,2.13-1.07,3.11,3,3.41,6,6.82,9,10.15,3.55,4,7,8,10.53,11.76q6,6.54,11.6,12.54,3.43,3.69,6.71,7.15c4.82,5.08,9.32,9.77,13.38,14,3.71,3.81,7,7.21,9.92,10.12,4,4,7,7.12,9,9l2.35,2.36c.07-.76.15-1.52.15-2.2.18-2.09.34-4.15.46-6.2q.3-4.62.38-9.19a233.69,233.69,0,0,0-16.66-92.41c-.4-1-.81-2-1.22-3-2-4.93-4.23-9.74-6.53-14.43q5.5,3.14,11,6.15c.61.34,1.21.68,1.82,1q5.38,3,10.73,5.81a106,106,0,0,0,9-23c.11-.43.22-.84.31-1.23.79-3.08,1.12-5,1.12-5,.65,1.14,1.27,2.32,1.84,3.56l.31.67h0c4.64,10.37,6.57,23.7,7.1,35.18l6.33,3.21q5.53,2.79,10.83,5.39c4.48,2.22,8.83,4.32,13,6.32.22-.36.43-.73.64-1.09a48.69,48.69,0,0,0,6.12-24.52c6.35,10.53,10.53,25.31,12.87,34.94,2.51,1.13,4.85,2.19,7.05,3.26l6.78,3.07c8.23,3.71,13.09,5.8,13.09,5.8C826.21,796.27,824.16,789.91,821.89,783.69Z" transform="translate(-233.75 -121.13)" style="fill: #d1baf7"/>
    <path d="M815.25,188.44a137.55,137.55,0,0,0-14.09-6.14c-17.82-6.73-49.48-15.26-76.9-4.7,0,0,5.1,7.53,13.5,19.21-52.74-33.79-118-59.26-194.33-58.9,0,0,18.59,22.46,46.17,52.39-67.92-13.86-144.51-14.23-225.36,12.33-11.56,3.85-23.07,8.2-34.84,13.12,0,0,13.38,7.17,35.53,18.43,4,1.94,8.26,4.11,12.77,6.41,16.55-7.65,42.61-18.59,65.08-21.5,0,0-19.95,13.92-29.16,39.08,17.13,8.3,36,17.19,56.08,26.32,19.57-14.15,44.73-28.47,67.35-31.86a196.09,196.09,0,0,0-30,48.51q22.43,9.71,45.68,19.09C490.3,333.89,426.12,361.44,366.59,411c-7.23,5.93-14.19,12.19-21.2,18.83-1,.79-2,1.76-3,2.74l6.07.69c8.71,1.09,26.07,3,49.33,5.31,15.23,1.47,32.93,3.09,52.33,4.65,10.37.83,21.22,1.64,32.44,2.39,9.46.68,19.13,1.18,29,1.71,8.27.54,16.57.89,25,1.34,1.07-1.56,2.16-3.32,3.26-5.08,10.08-15.34,25-35.39,40-45.39,0,0-4.69,29.94-7.27,50.89-.13.28-.07.59-.2.87l3.27.07.11-.08c34.13,1,68.4.82,100.54-.69,1.86-13.79,4.63-40.77.18-49.72,0,0,23.32,14.07,25.22,48,7.06-.61,13.86-1.23,20.4-2l4-.49c30.89-3.77,107.17-109.84,117.11-186.58C847.17,227.43,840.33,201.18,815.25,188.44Zm452.94,439.15q-2.51-7.76-5.25-15.31c-.19-.57-.4-1.14-.61-1.71q-3.19-8.61-6.67-16.91-5-11.92-10.5-23.21-5.65-11.57-11.81-22.48c-28-49.54-63.51-89.39-101.72-121.39,40.59,2.93,69.74,3.49,69.74,3.49-47.28-60-107.83-95.14-167.11-115.36,14.37-.7,23.44-1.4,23.44-1.4-13.12-41.71-65.15-64.44-65.15-64.44-82-37.48-129.23-9.33-149.39,9.6-1.67,1.57-3.16,3.08-4.47,4.48-24.55-51.33-272.76,98.1-212.07,96.22,21.23-.66,83.32-9.73,100.06-11.26-1,14.5,7.67,22.59,23.85,26.36a68.57,68.57,0,0,0,13,1.67c-5.89,8.6-20.91,32.1-41.46,69.6-18.49,33.73-41.45,78.79-66.28,134.52-18,40.33-36.92,86.24-55.84,137.5C585.8,755.75,571.7,796.9,558,840.92c-29.42,94.59-51.2,199.28-65.58,280.39-7.33,41.36-12.74,76.59-16.25,101.22-3.13,21.94-4.75,35.46-4.89,37.42,0,0,9.52,8.73,34.68,12.63q4.92.76,10.66,1.25a155.34,155.34,0,0,0,56.21-5.86c.49-6.48,2.14-22.37,4.88-45.44,3-25.53,7.42-59.86,13.06-100,.05-.41.11-.82.17-1.23,13-92.38,32.55-215.15,57.62-331.92q1.81-8.43,3.67-16.68a1420.74,1420.74,0,0,1,48.41-167.27c47.92-133.35,98.1-204.05,105.53-222,6,26.08,18.27,57.75,41.15,95,4,6.7,8.51,13.53,13.25,20.65,27.76-19.67,53.29-10.19,53.29-10.19C904.11,491,884.72,510,875.1,520q4.35,6,8.87,12.11c13.71,18.47,28.47,37.23,43.77,55.69q4.68,5.67,9.43,11.29v.14l2.1,2.51c.13-.27.41-.41.55-.69,14.79-15.07,35.29-37.39,35.29-37.39,1.54,18-4.88,42.13-10.6,59.57-.69,2-1.39,3.9-2,5.72,5.58,6.27,11,12.55,16.6,18.69,6.56,7.39,13,14.65,19.39,21.62,21.76,23.85,42,45.06,58.31,61.93s28.59,29.16,34.87,35.3l4.33,4.32c.14-1.39.28-2.79.28-4,.83-9.63,1.39-19,1.53-28.32q.44-20.21-.9-39.5-1.15-17.09-3.58-33.46A434.69,434.69,0,0,0,1053,536.36c14.51,8.23,29,16.18,43.39,23.86a196.3,196.3,0,0,0,19.25-53.71c11.44,19.81,15.9,48.41,17,72.54,19.67,10,38.36,19.25,55.52,27.48a78.11,78.11,0,0,0,5.27-10.27,92.15,92.15,0,0,0,7.19-33.22c0-2.33,0-3.66,0-3.66l1.12,1.88c6.19,10.75,11.21,23.63,15.17,35.89,1.23,3.83,2.37,7.61,3.4,11.24,1.57,5.53,2.91,10.73,4,15.3,4.6,2.09,8.93,4,13,6l3.64,1.66,5.85,2.65c17,7.67,27.06,12,27.06,12C1272,639.73,1270.13,633.61,1268.19,627.59Z" transform="translate(-233.75 -121.13)" style="fill: #d1baf7"/>
    <path d="M1329.33,1213.49s-197.53,23.87-179,43.62-28.24,3.64-41.82,23.39,54.16,17.35,54.16,33.4-76.54,25.93-48.15,45.68,260.5-8.64,261.73,7.41-59.26,50.62,28.4,46.91,224.69-51.85,216-33.33,95.06-9.88,95.06-9.88-59.67,2.47-71.19-13.17c-10-13.55,37.86-42.8-55.15-23-16,3.39-107.61,18.1-154.73,13.17-45.8-4.8,62.25-30.47,20.57-37.86-26.89-4.77-148.1,3.18-168.51-2.06-36.5-9.38,54.32-38.27-6.79-44.45C1228.35,1258.07,1329.33,1213.49,1329.33,1213.49Z" transform="translate(-233.75 -121.13)" style="fill: #fff"/>
    <path d="M2854.87,1642.4q-16.23,20.71-34.22,39.64a544.39,544.39,0,0,1-47.2,44.16c-63.16-16.79-40.74-56.07-212.58-45.55-181.47,11.11-137-5.56-105.55-31.48s-303.68-14.82-318.5-40.74,61.11-44.44,48.15-75.92c-3.37-8.18,12.38-17.6,37.55-27.07,12-4.55,26.26-9.1,41.56-13.52,75.75-21.93,178.28-40.89,178.28-40.89a9.75,9.75,0,0,1,1,1.68c1.72,3.76.29,7.51-3.32,11.25-20.76,21.52-113.4,42.62-90.25,61.14,27.78,22.22,264.81-35.18,190.74,16.67s87,57.4,201.84,33.33,66.66,40.74,107.4,64.81A36.25,36.25,0,0,0,2854.87,1642.4Z" transform="translate(-233.75 -121.13)" style="fill: #fff"/>
    <path d="M1751.55,1371.93s161.21,8.73,146.4,29.1,18.51,24.08,122.21,14.82,261.43-12.24,247.44.93,22.22,22.22,74.9,18.93,112.48,1.83,99.86,15.32l-2.74,15.14s48.56-33.75,8.23-42-160.5-18.11-148.15-28-11.52-27.16-74.9-17.29-282.3,16.46-265,4.94S1828.92,1360.82,1751.55,1371.93Z" transform="translate(-233.75 -121.13)" style="fill: #fff"/>
    <g>
      <rect x="1030.35" y="891.3" width="248.17" height="7.17" transform="translate(-372.99 1451.93) rotate(-65.45)" style="fill: #8fb5e2"/>
      <g>
        <path d="M1140.36,1615.67l-19.67-6.38s-4.08-53.36,4.67-117.32c5.54-40.52,15.7-84.41,34.1-119.66,8.33-16,18.34-30.13,30.38-41.44,0,0,15.09-35,35.07-81.86,22.22-52.06,161.25-67.32,81.92,41.74-16.28,22.38-33.76,61.78-54.71,85.7-35.8,40.9-61.06,88.64-78.4,130.68C1148.93,1567.24,1140.36,1615.67,1140.36,1615.67Z" transform="translate(-233.75 -121.13)" style="fill: #ffb27d"/>
        <path d="M1095.59,1618.65c-6,9.66,6.91,19.12,22.83,28s9.33,9.81,29.69,25,32.37,13.48,35.49,11.26c2.77-2-5.55-11.32-14.28-21.56-1.1-1.29-2.19-2.59-3.29-3.89-9.75-11.68-11.2-26.35-15.77-41.55-4.34-14.4,2.54-50.2,2.54-50.2l-27.18-21.59s-5.52,32.56-8.56,46.12c-1.79,8-8.31,14.64-13.59,19.56A44.28,44.28,0,0,0,1095.59,1618.65Z" transform="translate(-233.75 -121.13)" style="fill: #ffb27d"/>
      </g>
      <path d="M1382.46,1150.15c-1,7.3-1.71,22.94-6.37,22.09-3.8-.69-7.75-21.42-11.89-26.42-6-7.26-9.52-20.82-9.89-24-.76-6.6-2.31-8.22-2.31-8.22h0s-37.83-113.9-37.43-141.22c.11-8.9-.45-26.89-1.28-47.08-.9-22-2.11-46.51-3-64.92,18.73-.23,39,2.16,55.34,4.81-.58,22.07-1.6,44.54-2.5,64.07-1.35,29-2.45,51.56-1.52,56.6,2.57,13.83,3.47,86,9.69,124.55.83,3.82,1.23,11.47,4.17,16.27C1379,1132.45,1383.76,1140.19,1382.46,1150.15Z" transform="translate(-233.75 -121.13)" style="fill: #ffb27d"/>
      <path d="M1326.31,1029.87c-31.81-101.69,32.22-100.37,28.91-151.25S1312.51,773,1312.51,773l-3.87-.37a3.49,3.49,0,0,1-3-2.27c-1.47-4-1.9-12.82-1.87-22,0-14,1.1-28.87,1.1-28.87l-47.25-9.36-2.81-.55c.09,23.76-4.41,41.63-9.28,51.61a15.82,15.82,0,0,1-12.07,8.73c-10.15,1.42-28,4.46-40,9.49-5.85,2.44-10.31,5.35-11.87,8.77-13,28.53-25.93,100.53-35,151.89-5.08,28.63-9.88,46.58-11,55.56-1.72,14.18,43.18,23.92,48.82-2.82,1.83-8.71,6.34-26.13,11.59-45.65l2.43-9c9.29,25.17,14,36.83,13.77,47.7-.37,15.48-10.86,29.39-32.8,78.58C1167.26,1091.66,1358.79,1133.72,1326.31,1029.87Z" transform="translate(-233.75 -121.13)" style="fill: #ffb27d"/>
      <path d="M1304.89,719.51s-1.07,14.87-1.1,28.87c-26.44-.74-40.42-24.86-46.15-38.23Z" transform="translate(-233.75 -121.13)" style="fill: #e8945b"/>
      <path d="M1401,1640.89l-20.07,4.94s-31.57-43.23-57.81-102.21c-16.63-37.36-31.1-80-34-119.68-1.33-17.94-.28-35.27,4-51.22,0,0-5.61-37.73-13.28-88.06-8.52-56-19.57-127.5-28.23-180.11l5.23-1.55,85.4-49.94s39.24,89.46,29.22,224c-2.06,27.6,3.83,70.29-1.39,101.67-8.9,53.61-5.23,107.5,2.15,152.37C1382.8,1595.21,1401,1640.89,1401,1640.89Z" transform="translate(-233.75 -121.13)" style="fill: #ffb27d"/>
      <path d="M1162.54,1110.13c13.79-74.62,50.52-102.5,44.64-107.2l-.08-.09c-22.65-16.07-12.86-43.66-11.37-53.53-7,1.87-29.4,6.1-55.08-8.07,10.58-51.72,25.65-124.24,40.76-153a11.68,11.68,0,0,1,3.71-3.91,1,1,0,0,1-.14-.18c14.14-10.31,43-13.47,43-13.47s15.57,38.13,20.33,44.1c30.83,38.51,86.2,21.12,78.67-2.87-2.72-8.73-16.72-36.23-18.41-39.3-.09-.14,3.91.38,3.91.38,9.29,1.23,15.87,2.16,20.6,3,9.29,1.58,11.6,2.69,13.91,4.47,8.15,8.15,18.76,28.4,19.61,64.55.32,13.44,14.32,161.85-31,159.28-1-.06-.14,2.37,1.82,7C1343.88,1026,1140.09,1231.49,1162.54,1110.13Z" transform="translate(-233.75 -121.13)" style="fill: #6f35a5"/>
      <path d="M1364.52,1667c0,11.35,15.94,12.61,34.18,11.81s13.09,3.43,38.38,5.6,34.62-5.58,36.1-9.11c1.33-3.13-10.67-6.7-23.49-10.81l-4.85-1.58c-14.44-4.8-23.38-16.5-35.28-27-11.27-10-24.27-44-24.27-44l-34.48-4s12.45,30.58,17,43.71c2.68,7.72.65,16.82-1.26,23.78A44.72,44.72,0,0,0,1364.52,1667Z" transform="translate(-233.75 -121.13)" style="fill: #ffb27d"/>
      <path d="M1380.36,1489.94c-75.53,43.16-260.63-106.19-260.43-110.16,1-21.13,20.16-148.29,42.61-269.65,13.79-74.62,50.52-102.5,44.64-107.2,1.41,1.13,22.71,18.32,61.78,16a647.66,647.66,0,0,0,68.52-7.66c6.4,14.7,24.54,51.58,29.8,98.88C1384.4,1264,1380.36,1489.94,1380.36,1489.94Z" transform="translate(-233.75 -121.13)" style="fill: #a0312b"/>
      <path d="M1325.44,1011.74s-14.73,234.41-49.56,329.52-77.69,135.29-125.91,151.36-191.55,34.83-132.61-67,92.42-119.22,89.74-194.23,97.32-220,97.32-220l57.73,7.64Z" transform="translate(-233.75 -121.13)" style="fill: #b5453c"/>
      <path d="M1207.1,1002.84s61.85,25.81,128.56,1.46l3.39,10.45s-68.63,23.85-134.63-3.28Z" transform="translate(-233.75 -121.13)" style="fill: #ed7d2b"/>
      <g>
        <path d="M1326.21,606s-64.75-70.57-94.88-21.95c0,0-23.68,11.2-30.43,52.76-6.89,42.41,18.94,77.61,33,69,9-5.51,20,2.43,20,2.43Z" transform="translate(-233.75 -121.13)" style="fill: #152847"/>
        <path d="M1312.33,724.33s-68.49,4.45-70.6-38.24-12.38-70.88,31.26-75.52,53,11.22,57.12,25.3S1330.09,722.07,1312.33,724.33Z" transform="translate(-233.75 -121.13)" style="fill: #f4a36c"/>
        <path d="M1297.71,699.63s1.43,5,13.91,3.6c0,0,10.48-1.16,9.89-6.68C1321.51,696.55,1311.13,693.11,1297.71,699.63Z" transform="translate(-233.75 -121.13)" style="fill: #fff"/>
        <g>
          <path d="M1129.74,647.66s209.68-94.14,263.63-102.29,71.94-10.12,63.4,8.9S1396.08,651.44,1306.1,662s-124.43,45.26-174.91,42-65.87-17.11-46-32.67S1129.74,647.66,1129.74,647.66Z" transform="translate(-233.75 -121.13)" style="fill: #ed7d2b"/>
          <path d="M1193.5,640.76s-4.59-61.56,8.47-80,41.92-7.84,60.38-21.1,73.36,51.51,73.36,51.51S1278.47,640.08,1193.5,640.76Z" transform="translate(-233.75 -121.13)" style="fill: #f99746"/>
        </g>
      </g>
      <path d="M1239.22,1044l-3.59-.6-91.35,127.78s55.53,3.58,81.8-10.75,25.08-109.72,25.08-109.72Z" transform="translate(-233.75 -121.13)" style="fill: #8fb5e2"/>
      <path d="M1099.49,1002.2s86,38.21,139.73,41.8c0,0-23.89,115.83-77.63,125.39s-109.87-28.66-107.48-58.52S1099.49,1002.2,1099.49,1002.2Z" transform="translate(-233.75 -121.13)" style="fill: #aac9f5"/>
      <path d="M1239.22,1044s10.15-5.15,11.94,6.71C1251.16,1050.71,1240,1048.47,1239.22,1044Z" transform="translate(-233.75 -121.13)" style="fill: #8fb5e2"/>
      <path d="M1244.44,1047.58a3.56,3.56,0,0,1-3.58-3.43c0-.63-2.11-64.35-6.79-129.11-8.44-116.87-17.8-135.51-21.43-138.1a3.5,3.5,0,0,1-.81-4.94,3.61,3.61,0,0,1,5-.79c6.35,4.52,15.79,24.31,24.39,143.34,4.69,64.9,6.78,128.74,6.8,129.38a3.56,3.56,0,0,1-3.47,3.65Z" transform="translate(-233.75 -121.13)" style="fill: #8fb5e2"/>
      <path d="M1135.47,996.67s10.9,74.2,37.77,125.25l19.7-4.48-8.55-124.61S1161.4,978.18,1135.47,996.67Z" transform="translate(-233.75 -121.13)" style="fill: #ffb27d"/>
      <path d="M1190.25,1112.07s17,4.47,22.84,8.5,9.41,20.75,3.73,27.62c-3.57,4.33-14.48-9.7-21.19-9.7s-20.6-4-22.39-16.57S1190.25,1112.07,1190.25,1112.07Z" transform="translate(-233.75 -121.13)" style="fill: #ffb27d"/>
      <path d="M1191.72,1112.45a131.19,131.19,0,0,0,20,1s1.15,1.91-1.71,2.77a85.24,85.24,0,0,1-9.93,1.62l-9-5.82Z" transform="translate(-233.75 -121.13)" style="fill: #ffb27d"/>
    </g>
    <g>
      <path d="M2268.13,1164.41l-22.24,98.36,11.63,29.89c-81.08,13.08-95.5,53.23-115.92,38.37,0,0-1.44-26.15-.92-36.34s-1.48-25.55.39-40.31l9.88-91.49s-1.67-56.28,20.08-58.34c7.89-.75,19.78-8.66,20.66-16.53.14-1.24,3.41-20.35,4-33.58l38.42,19s-1.87,22.74-1.37,27.87c0,.39.1.77.14,1.15.66,5.72,6.64,9.39,12.14,11.1C2278.9,1124.13,2268.13,1164.41,2268.13,1164.41Z" transform="translate(-233.75 -121.13)" style="fill: #ffb27d"/>
      <path d="M2250.78,1164.72a2.51,2.51,0,1,1-2.18-2.81A2.52,2.52,0,0,1,2250.78,1164.72Z" transform="translate(-233.75 -121.13)" style="fill: #ed975d"/>
      <path d="M2189.65,1156.91a2.52,2.52,0,1,1-2.18-2.81A2.51,2.51,0,0,1,2189.65,1156.91Z" transform="translate(-233.75 -121.13)" style="fill: #ed975d"/>
      <path d="M2249.2,1288.15s43,107.47,33.4,152.46-45.38,100.13-45.38,100.13l-20.51-13.26s23.42-82.2,16.75-104.28-34.94-117.4-34.94-117.4Z" transform="translate(-233.75 -121.13)" style="fill: #ffb27d"/>
      <path d="M2239.84,1529.52s2.57,19.8,12.76,34.6,15.41,24.38,7.7,26.58-26.53-14.14-36.11-21-31-13.5-7.87-46.77Z" transform="translate(-233.75 -121.13)" style="fill: #ffb27d"/>
      <path d="M2205,1300.43s4.62,119.36-26.55,153.21c-18.64,20.23-109.88,26.15-109.88,26.15l-11.09-18.86s82.76-37.61,83.36-43.39c2.37-22.94-.17-122.85-.17-122.85Z" transform="translate(-233.75 -121.13)" style="fill: #ffb27d"/>
      <path d="M2069.27,1479.62s-19.4,4.74-33,16.48-22.55,18-25.58,10.58,11.14-27.93,16.94-38.21,10-32.28,45.61-13Z" transform="translate(-233.75 -121.13)" style="fill: #ffb27d"/>
      <path d="M2245,1113.54s17.6,2.82,51.1-15.81c27.16-15.1,66.71-90.05,66.71-90.05l13.05,6.12s-26.13,88.26-43.51,106-64.26,44.59-64.26,44.59Z" transform="translate(-233.75 -121.13)" style="fill: #ffb27d"/>
      <path d="M2362.85,1007.68s-.65-12.62.77-14.25,4,6.36,4.58,5.22,6.55-15.49,11.45-14.22c6.88,1.79,4.91,9.29,3.93,15.42s-7.68,13.95-7.68,13.95Z" transform="translate(-233.75 -121.13)" style="fill: #ffb27d"/>
      <path d="M2173.05,1104.76s-17.6,2.82-51.1-15.81c-27.17-15.11-66.71-90.05-66.71-90.05l-13,6.11s26.12,88.27,43.51,106,66,49.49,66,49.49Z" transform="translate(-233.75 -121.13)" style="fill: #ffb27d"/>
      <path d="M2055.24,998.9s.64-12.62-.78-14.26-4,6.37-4.57,5.23-6.55-15.5-11.45-14.22c-6.88,1.79-4.92,9.28-3.93,15.41s7.68,14,7.68,14Z" transform="translate(-233.75 -121.13)" style="fill: #ffb27d"/>
      <path d="M2194.64,1073.18s4.06,12.94,38.32,17.32l.41-6.72Z" transform="translate(-233.75 -121.13)" style="fill: #ed975d"/>
      <path d="M2246.72,1082.66s-56.3,13.88-62-27.78,15.25-71.52,31.16-73.06c31.72-3.07,38.36,9.63,43.5,23S2272.68,1076.65,2246.72,1082.66Z" transform="translate(-233.75 -121.13)" style="fill: #ffb27d"/>
      <path d="M2229.56,1058.7s4.91,6.6,15.3,4.57c0,0,11.32-1.94,9.6-10.66C2254.46,1052.61,2240.42,1052.12,2229.56,1058.7Z" transform="translate(-233.75 -121.13)" style="fill: #fff"/>
      <g>
        <path d="M2194,1074.41s-9.92-7.57-6.91-25.74c0,0-6.61-8.16-1-13.8,5.42-5.49,11.1,6.89,12.43,5s1-34.5,8.73-31.94c43.57,14.31,66.14-19.73,66.14-19.73s-49.06-43.33-92-18.85C2131.68,997.67,2155.55,1074.41,2194,1074.41Z" transform="translate(-233.75 -121.13)" style="fill: #2c3a64"/>
        <path d="M2157.42,996.81s-3.24-7.27-1.19-13c0,0,.92,7.42,4.08,10.41S2157.42,996.81,2157.42,996.81Z" transform="translate(-233.75 -121.13)" style="fill: #2c3a64"/>
        <path d="M2158,991.39s-6.74,0-9.32,5.69c0,0,4.34-3.85,9.46-.9Z" transform="translate(-233.75 -121.13)" style="fill: #2c3a64"/>
      </g>
      <path d="M2141.6,1331l63.41,3.26s18.21-1.67,34.14-4.38c12.67-2.15,23.9-5,23.41-8.1-1.11-7.07-13.47-73.18-13.47-73.18s-54.41,8.88-106.36-9.62C2142.73,1239,2130.61,1274.34,2141.6,1331Z" transform="translate(-233.75 -121.13)" style="fill: #6f35a5"/>
      <path d="M2084.13,1090.51h0Z" transform="translate(-233.75 -121.13)" style="fill: #e26337"/>
      <path d="M2205,1334.28s4.45-32.93,13.7-41.62c0,0-4.93,22,0,40.14Z" transform="translate(-233.75 -121.13)" style="fill: #f1e6ff"/>
    </g>
    <g>
      <path d="M1905.5,1392.35s8.44,129.62-5.83,148.42-38.08-5-42-17.09-20.45-114.42-10.62-120.45S1905.5,1392.35,1905.5,1392.35Z" transform="translate(-233.75 -121.13)" style="fill: #f2a36d"/>
      <path d="M1770.58,1534.48c12.16-1,49.7,3.56,79.18,7.6,17.5,2.39,32.16,4.6,37,5.34l.32,0,1.27.19.1,0s18.49-34-19-48.54a63,63,0,0,0-22.6-3.79c-1.2,0-2.4,0-3.61.06-34.78,1.24-73.61,21.14-73.61,21.14Z" transform="translate(-233.75 -121.13)" style="fill: #f2a36d"/>
      <path d="M1770.58,1534.48s-32.41,23.33-39.37,17.15,14.44-21.15,17-27.34,14-14.44,21.42-7.74S1770.58,1534.48,1770.58,1534.48Z" transform="translate(-233.75 -121.13)" style="fill: #f2a36d"/>
      <path d="M1751.74,1051.62s-27.79-21.66-49.86-11.89-35-24.87-61.46-26.07-41.1,10.43-34.12,32.78,52.11,57.17,72,48.45,34.63-43.23,46.24-40.85,27.79,15.36,27.79,15.36Z" transform="translate(-233.75 -121.13)" style="fill: #2c3a64"/>
      <path d="M1861.56,1212.06c-23.47-3.7-31.42-33.42-13-48.41,18.65-15.16,36.18-31.43,40.29-41.83,9.57-24.18,15.36-76.66,15.36-76.66l16.83,5.21s7.12,58-1.56,90.53c-6.31,23.67-28.55,51.37-40.25,64.75a19.43,19.43,0,0,1-17.69,6.41Z" transform="translate(-233.75 -121.13)" style="fill: #ffb27d"/>
      <path d="M1921.06,1050.37s-.89-23.47-8.09-32.3-12.52-16.54-19.65-12.7,3.68,25.32,2.33,26.15-10.89-7.58-11.13-4.94,11.33,14,13.58,15.17,6.13,3.41,6.13,3.41Z" transform="translate(-233.75 -121.13)" style="fill: #ffb27d"/>
      <g>
        <path d="M1836.38,1407.79s8.44,129.61-5.84,148.41-45-4.41-49-16.51-13.49-115-3.67-121S1836.38,1407.79,1836.38,1407.79Z" transform="translate(-233.75 -121.13)" style="fill: #ffb27d"/>
        <path d="M1827.65,1559.26s-79.85,68.11-92.49,85l-14-11.2s23.64-79.61,59.39-98S1827.65,1559.26,1827.65,1559.26Z" transform="translate(-233.75 -121.13)" style="fill: #ffb27d"/>
      </g>
      <path d="M1759.74,1232.39c22.44-7.79,25-38.45,4.22-49.94-21-11.63-41.17-24.55-47.06-34-13.69-22.11-28.67-72.74-28.67-72.74l-15.64,8.1s3.23,58.3,17.54,88.84c10.39,22.17,37.18,45.5,51.06,56.61a19.46,19.46,0,0,0,18.55,3.18Z" transform="translate(-233.75 -121.13)" style="fill: #ffb27d"/>
      <path d="M1678.29,1094.89s-14-18.85-13.93-30.24-.62-20.73,7.35-22.21,13,22,14.58,21.84,3.73-12.73,5.57-10.83-.09,18-1.07,20.34-2.64,6.5-2.64,6.5Z" transform="translate(-233.75 -121.13)" style="fill: #ffb27d"/>
      <path d="M1829.45,1164.61s11.22.5,15.72-2c14.42-7.88,33.45-26.35,33.45-26.35s38.55,40.78,11.59,89.48C1888.83,1228.27,1829.45,1164.61,1829.45,1164.61Z" transform="translate(-233.75 -121.13)" style="fill: #f77d48"/>
      <path d="M1780.06,1174s-29.67-11.63-47.7-11.11c0,0-26.54,69,14.92,94.49S1780.06,1174,1780.06,1174Z" transform="translate(-233.75 -121.13)" style="fill: #f77d48"/>
      <path d="M1820.51,1045.49s29.53-32.7,12.65-51.62,7.47-51-24.24-59.59-57.94,16.09-51,44,42.89,31.32,47.8,43.71,4.69,18.92,4.69,18.92Z" transform="translate(-233.75 -121.13)" style="fill: #2c3a64"/>
      <path d="M1922.31,1455.63l4.32,11.74s-4.49,8-16.74,6.5-22.28,3.15-27.9,6.75-14.09,3.37-23.09,2.06-8.64.31-13.4.14-8.06-5.09-13.48-3.37-19.52,1.59-27.49-1.64-26.51-.31-30.61-4.55-7.86-9.13-16-9.83-13.86-1.89-16.25-7.1-11.52-6-14.75-7.68-3.21-6.63-6.65-8-8-4.51-9.24-7.73-6.65-2.73-7.29-4.57,2.89-4.77,2.89-4.77Z" transform="translate(-233.75 -121.13)" style="fill: #e26337"/>
      <path d="M1922.31,1455.63c-44.48,34.38-159.78,32.92-215.68-32-.75-.16,29-149.46,29-149.46s.14-66.49,7.75-75.62c28.75-34.55,78.56-35,101.19-33.48C1910.54,1169.36,1926.73,1452.27,1922.31,1455.63Z" transform="translate(-233.75 -121.13)" style="fill: #f77d48"/>
      <g>
        <path d="M1843.6,1061.9c-.43-.66-18.29-26.81-50.09-31-25.77-3.42-49.11,15.52-52.14,41.34s2.17,59.23,44.69,69.79Z" transform="translate(-233.75 -121.13)" style="fill: #2c3a64"/>
        <path d="M1817.32,1187.34l-.09,0c-14,6.29-31.42,0-38.19-13.71l0-.13s6.07-11.93,7-31.53a130.55,130.55,0,0,0-1.76-28.16l42.06,16.53a75.9,75.9,0,0,0-.69,9.32c-.09,6,.39,14,2.82,21.35l.06.19A21.14,21.14,0,0,1,1817.32,1187.34Z" transform="translate(-233.75 -121.13)" style="fill: #ffb27d"/>
        <path d="M1828.49,1161.05c-22.82,1.65-42.43-19-42.43-19l39.61-2.31C1825.58,1145.67,1826.06,1153.66,1828.49,1161.05Z" transform="translate(-233.75 -121.13)" style="fill: #ea9c68"/>
        <path d="M1838.27,1147.27s-44.21,16.49-63.45-18.06c-20.77-37.28-5-67.51,10.19-71,30.36-6.86,49.38,3.09,56,15S1862.69,1138.4,1838.27,1147.27Z" transform="translate(-233.75 -121.13)" style="fill: #ffb27d"/>
        <path d="M1818.26,1128.73s2.36,4.5,14.08.68c0,0,9.84-3.2,8.17-8.38C1840.51,1121,1829.85,1119.79,1818.26,1128.73Z" transform="translate(-233.75 -121.13)" style="fill: #fff"/>
        <path d="M1803.87,1061.77s5.72,41.82-33.57,58.1c-15.63,6.48-26.13-57.34,6.5-71.31s65.79.08,70.48,22.32,1.89,27,1.89,27S1832.18,1055.87,1803.87,1061.77Z" transform="translate(-233.75 -121.13)" style="fill: #2c3a64"/>
        <g>
          <path d="M1752.32,1069.4c-1.57-5.59-.45-7.19,1.35-7.69s3.58.28,5.14,5.88a20.12,20.12,0,0,1-.41,11A20.11,20.11,0,0,1,1752.32,1069.4Z" transform="translate(-233.75 -121.13)" style="fill: #6f35a5"/>
          <path d="M1765.35,1069.37c4.5-3.67,6.41-3.29,7.59-1.84s1.17,3.39-3.33,7.07a20.13,20.13,0,0,1-10.29,4A20.12,20.12,0,0,1,1765.35,1069.37Z" transform="translate(-233.75 -121.13)" style="fill: #6f35a5"/>
          <path d="M1747.84,1074.27c-5.76-.81-7.19.52-7.45,2.36s.76,3.51,6.52,4.32a20.14,20.14,0,0,0,10.88-1.89A20.07,20.07,0,0,0,1747.84,1074.27Z" transform="translate(-233.75 -121.13)" style="fill: #6f35a5"/>
          <path d="M1750.5,1087.13c-2.62,5.19-1.83,7-.16,7.81s3.56.42,6.18-4.77a20.18,20.18,0,0,0,1.74-10.91A20.18,20.18,0,0,0,1750.5,1087.13Z" transform="translate(-233.75 -121.13)" style="fill: #6f35a5"/>
          <path d="M1769.5,1081.82c4.93,3.07,5.18,5,4.2,6.59s-2.84,2.2-7.77-.87a20.16,20.16,0,0,1-7.14-8.43A20.11,20.11,0,0,1,1769.5,1081.82Z" transform="translate(-233.75 -121.13)" style="fill: #6f35a5"/>
        </g>
        <path d="M1755.85,1078.64a2.46,2.46,0,1,1,2.54,2.36A2.45,2.45,0,0,1,1755.85,1078.64Z" transform="translate(-233.75 -121.13)" style="fill: #d1baf7"/>
      </g>
      <path d="M1735.16,1644.25s22.35,24.18,16.94,36.55-48.73-14.69-48-25.52,17-22.23,17-22.23Z" transform="translate(-233.75 -121.13)" style="fill: #ffb27d"/>
    </g>
    <g>
      <g>
        <path d="M899.52,709.28s66.11,13.66,83.1,34.31,8.43,146,20.06,182.13c13.79,42.89,9.76,85.52,9.76,85.52l-93-73.94Z" transform="translate(-233.75 -121.13)" style="fill: #ffb27d"/>
        <path d="M967.35,825s25.29,67.64,12.13,94.43-26.05,11.21-26.05,11.21Z" transform="translate(-233.75 -121.13)" style="fill: #ed985f;opacity: 0.5"/>
        <path d="M768.41,1686.51s-6.91,42.21,1.74,47.32l115,8.53s1-13.27-17.23-17.62S818,1707.1,814.39,1682.6,768.41,1686.51,768.41,1686.51Z" transform="translate(-233.75 -121.13)" style="fill: #ffb27d"/>
        <path d="M1029.26,1661.71s-6.92,42.22,1.73,47.33l115,8.53s1-13.27-17.23-17.63-54.12-11.66-57.77-36.16S1029.26,1661.71,1029.26,1661.71Z" transform="translate(-233.75 -121.13)" style="fill: #ffb27d"/>
        <path d="M911.25,1093.6s-11.74,74-25.7,163c-19,120.9-44,222.65-50,250.41-20.45,94.32-20.76,177.55-20.76,177.55s-9,12.68-46.35,1.92c0,0-15.65-61.75-25.66-220.2-1.54-24.42,8-62.19,8-64.16.23-121.57,2.83-335.37,2.83-335.37Z" transform="translate(-233.75 -121.13)" style="fill: #ffb27d"/>
        <path d="M811,725.25s76.43,30.65,118.19,14.49a100.92,100.92,0,0,0-30.46-21.13c.89-8.66,1.53-16.17,1.76-22.52a207.12,207.12,0,0,0,.25-22.9l-30.08-20.5-28.54-19.64C848.41,693.32,811,725.25,811,725.25Z" transform="translate(-233.75 -121.13)" style="fill: #ffb27d"/>
        <path d="M757.65,755.73c0,.23,0,101.83,7.09,164.32.76,6.74,1.26,14.06,1.55,21.76,1.47,39.16-2.6,88.34-6.38,123.64-2.74,25.56-5.32,43.86-5.53,45.79-.5,4.52,201.39,28.29,202.79,27.26.58-.36-27.91-96.47-5.39-186.22,27.54-109.76,19.54-191.69-4.06-214.7-9.4-9.17-48.21-28.3-48.21-28.3-15,1.78-13.31,19.18-28.3,10.41-16.43-9.53-38.84-20.53-42-18.5C805.7,715.8,769.27,709.52,757.65,755.73Z" transform="translate(-233.75 -121.13)" style="fill: #ffb27d"/>
        <path d="M843.24,656.19s21,32.8,57.28,39.9a207.12,207.12,0,0,0,.25-22.9l-30.08-20.5Z" transform="translate(-233.75 -121.13)" style="fill: #ed985f;opacity: 0.5"/>
        <path d="M913.72,671.32s-69.8,16.37-79.39-26.58-25.05-69.74,19.1-82,56.51,2.22,63.25,15.78S931.63,666,913.72,671.32Z" transform="translate(-233.75 -121.13)" style="fill: #ffb27d"/>
        <path d="M802.84,561c-.69-.7-2.21-1.19-5.51-1.14a13.24,13.24,0,0,1,6-2.15c.38-4.62,2.26-12.88,10-15.39a9.87,9.87,0,0,0-4.3,7.44c8.48-10,27.55-18.13,81.93-17.56,71.68.76,51.3,48,42.44,54.09s-33.1-7.26-50.21-4.72S864.53,609.15,858.93,613s-3.71-2.38-11.85-5.41-8,10.1-5.14,18.45-7.21,20.31-7.21,20.31L823,635.25c-11.77-11-25.51-60.34-21.25-71.34C802.08,562.94,802.45,562,802.84,561Z" transform="translate(-233.75 -121.13)" style="fill: #2c3a64"/>
        <path d="M950.06,1066.69s96.5,215.43,115.83,310.13,4.92,293.53,4.92,293.53l-41.55-8.64s-66.76-163.3-45.57-251.8c10.09-42.12-194.05-154.49-168.31-275C831.89,1057.64,950.06,1066.69,950.06,1066.69Z" transform="translate(-233.75 -121.13)" style="fill: #ffb27d"/>
        <path d="M896,986c-.23,3-1.56,5.28-3,5.18s-2.39-2.6-2.17-5.57,1.56-5.28,3-5.17S896.19,983.07,896,986Z" transform="translate(-233.75 -121.13)" style="fill: #ed985f"/>
        <path d="M1042.7,1277.11s-41.76,23.2-102.31,33.4h0c-10.31,1.74-21.62,3.21-34,4.26L878,1286.87l-85.1-83.59-29.55-173.79s97.88,27.12,192.06,11.07C955.39,1040.56,1009.72,1142.61,1042.7,1277.11Z" transform="translate(-233.75 -121.13)" style="fill: #6f35a5"/>
        <path d="M940.39,1310.51h0c-10.31,1.74-21.62,3.21-34,4.26L878,1286.87l26.86-157.58C907.74,1196.85,940.39,1310.51,940.39,1310.51Z" transform="translate(-233.75 -121.13)" style="fill: #f1e6ff"/>
        <path d="M763.33,1029.49s-15.17,34.64-18.75,81.58-2.06,191.22-2.06,191.22,31.86,27.45,133.12,15.25l36.73-238.65Z" transform="translate(-233.75 -121.13)" style="fill: #6f35a5"/>
        <path d="M818.53,706.19s73.38,31.8,81,3.09c0,0,69.73,11.85,83.11,34.31s18.31,106.94,18.31,106.94a140,140,0,0,1-34.56,15.64l14,213.16s-56.79,45.27-246.09,4.94l28-300.41Z" transform="translate(-233.75 -121.13)" style="fill: #f77d48"/>
        <g>
          <path d="M936.38,904.35A83.08,83.08,0,1,0,1031,974,82.88,82.88,0,0,0,936.38,904.35Z" transform="translate(-233.75 -121.13)" style="fill: #c5ddff"/>
          <path d="M936.38,904.35a82.88,82.88,0,0,0-32.51,12.29,75.69,75.69,0,0,0,127.8,77,83.08,83.08,0,0,0-95.29-89.31Z" transform="translate(-233.75 -121.13)" style="fill: #f8fbff"/>
          <path d="M961.43,1068.6h0c32.42-31.81,37.14-65,35-87.7a110.45,110.45,0,0,0-12.51-42l-1.09.65a109.51,109.51,0,0,1,12.33,41.49C997.27,1003.44,993.47,1037.15,961.43,1068.6Z" transform="translate(-233.75 -121.13)" style="fill: #163560"/>
          <path d="M865.82,985.9h0c12.41-33.69,41.43-45.75,64-50a152.22,152.22,0,0,1,46.53-1.15l.2-1.26a153.55,153.55,0,0,0-47,1.15C906.69,939,878.44,951.65,865.82,985.9Z" transform="translate(-233.75 -121.13)" style="fill: #163560"/>
          <path d="M986.3,932.63l.33,1.23c.19-.05,19.81-5.53,29.71,4.08h0C1005.92,927.82,987.11,932.41,986.3,932.63Z" transform="translate(-233.75 -121.13)" style="fill: #163560"/>
          <path d="M942.41,903.63c20.93,2.25,39.34,29.58,39.52,29.85l1.06-.71a101.47,101.47,0,0,0-11.91-14.1c-6.7-6.59-17.4-13.83-28.67-15Z" transform="translate(-233.75 -121.13)" style="fill: #163560"/>
          <path d="M980.63,927.51a5.71,5.71,0,0,0-2.45.51,5,5,0,0,0-2.82,5.51,7.45,7.45,0,0,0,7.12,6.08A5.07,5.07,0,0,0,987.8,935a5.7,5.7,0,0,0,0-1.42A7.44,7.44,0,0,0,980.63,927.51Z" transform="translate(-233.75 -121.13)" style="fill: #163560"/>
        </g>
        <path d="M787.12,717.47s-55.93,8.62-69.34,38.71c-17.83,40-43.1,180.87-23,209.11,20.4,28.69,152.11,46.31,152.11,46.31l12.29-26.35s-111.88-50-112.32-55S757,857.61,772.09,823.52C785.31,793.73,787.12,717.47,787.12,717.47Z" transform="translate(-233.75 -121.13)" style="fill: #ffb27d"/>
        <path d="M859.17,985.25s15.84-3.36,26.6,1.66,28.52,4.22,27.66,9.56-29.16,5.28-24.77,9.32,42.63,18.89,32.13,30.32-34.75,9.41-42.07,5.12-35.1-32.25-35.1-32.25Z" transform="translate(-233.75 -121.13)" style="fill: #ffb27d"/>
        <path d="M818.53,706.19s-80.25,19.13-96.3,38.89-36.11,97.83-36.11,97.83,35.8,27.17,80.86,20.37,54.33-99.38,54.33-101.23S818.53,706.19,818.53,706.19Z" transform="translate(-233.75 -121.13)" style="fill: #f77d48"/>
      </g>
      <path d="M918.13,642.55s-1.16,7.53-8.82,9c-14,2.61-18.5-6.22-18.5-6.22S906.71,638.59,918.13,642.55Z" transform="translate(-233.75 -121.13)" style="fill: #fff"/>
    </g>
    <g>
      <g>
        <path d="M1884.91,1714.09c.79,1.37-.59,3.65-3.08,5.09s-5.16,1.5-5.95.12.59-3.65,3.08-5.09S1884.12,1712.72,1884.91,1714.09Z" transform="translate(-233.75 -121.13)" style="fill: #e8c7a0"/>
        <path d="M1961.08,1720.16c1,1.7-.73,4.54-3.83,6.33s-6.42,1.86-7.41.16.73-4.55,3.84-6.34S1960.1,1718.45,1961.08,1720.16Z" transform="translate(-233.75 -121.13)" style="fill: #f4d9b3"/>
        <path d="M1907.13,1697c-.78,2.09-4.49,2.65-8.3,1.25s-6.27-4.24-5.5-6.33,4.49-2.66,8.3-1.26S1907.9,1694.85,1907.13,1697Z" transform="translate(-233.75 -121.13)" style="fill: #fff0e2"/>
      </g>
      <g>
        <path d="M1939.89,1687.12c.79,1.37-.59,3.65-3.08,5.09s-5.16,1.5-6,.12.59-3.65,3.08-5.09S1939.1,1685.75,1939.89,1687.12Z" transform="translate(-233.75 -121.13)" style="fill: #e8c7a0"/>
        <path d="M2016.07,1693.19c1,1.7-.74,4.54-3.84,6.33s-6.42,1.86-7.41.16.74-4.55,3.84-6.34S2015.08,1691.48,2016.07,1693.19Z" transform="translate(-233.75 -121.13)" style="fill: #f4d9b3"/>
        <path d="M1962.11,1670c-.77,2.09-4.49,2.65-8.3,1.25s-6.27-4.24-5.5-6.33,4.49-2.66,8.3-1.26S1962.88,1667.88,1962.11,1670Z" transform="translate(-233.75 -121.13)" style="fill: #fff0e2"/>
      </g>
      <g>
        <path d="M1960.34,1706.42c.45.78-.34,2.09-1.77,2.91s-3,.86-3.41.07.34-2.09,1.77-2.91S1959.88,1705.63,1960.34,1706.42Z" transform="translate(-233.75 -121.13)" style="fill: #e8c7a0"/>
        <path d="M2004,1709.89c.56,1-.42,2.61-2.2,3.63s-3.68,1.07-4.24.09.42-2.6,2.2-3.63S2003.41,1708.92,2004,1709.89Z" transform="translate(-233.75 -121.13)" style="fill: #f4d9b3"/>
        <path d="M1973.06,1696.6c-.44,1.2-2.56,1.52-4.75.71s-3.59-2.42-3.15-3.62,2.57-1.53,4.75-.72S1973.51,1695.4,1973.06,1696.6Z" transform="translate(-233.75 -121.13)" style="fill: #fff0e2"/>
      </g>
    </g>
    <g>
      <g>
        <path d="M552.31,1656.91c1,1.78-.76,4.73-4,6.6s-6.69,1.94-7.71.16.76-4.74,4-6.6S551.29,1655.13,552.31,1656.91Z" transform="translate(-233.75 -121.13)" style="fill: #e8c7a0"/>
        <path d="M651.16,1664.78c1.27,2.21-.95,5.89-5,8.22s-8.33,2.41-9.61.2.95-5.9,5-8.22S649.88,1662.56,651.16,1664.78Z" transform="translate(-233.75 -121.13)" style="fill: #f4d9b3"/>
        <path d="M581.14,1634.66c-1,2.72-5.82,3.45-10.76,1.63s-8.14-5.5-7.14-8.22,5.82-3.45,10.76-1.63S582.14,1631.94,581.14,1634.66Z" transform="translate(-233.75 -121.13)" style="fill: #fff0e2"/>
      </g>
      <g>
        <path d="M623.66,1621.91c1,1.78-.77,4.74-4,6.6s-6.7,2-7.72.16.76-4.73,4-6.6S622.63,1620.13,623.66,1621.91Z" transform="translate(-233.75 -121.13)" style="fill: #e8c7a0"/>
        <path d="M722.5,1629.78c1.28,2.22-1,5.9-5,8.22s-8.33,2.42-9.61.2,1-5.89,5-8.22S721.22,1627.57,722.5,1629.78Z" transform="translate(-233.75 -121.13)" style="fill: #f4d9b3"/>
        <path d="M652.48,1599.67c-1,2.71-5.82,3.44-10.76,1.62s-8.14-5.5-7.14-8.22,5.82-3.44,10.77-1.62S653.48,1597,652.48,1599.67Z" transform="translate(-233.75 -121.13)" style="fill: #fff0e2"/>
      </g>
      <g>
        <path d="M650.18,1647c.59,1-.43,2.71-2.29,3.78s-3.83,1.12-4.42.1.44-2.72,2.29-3.79S649.6,1645.93,650.18,1647Z" transform="translate(-233.75 -121.13)" style="fill: #e8c7a0"/>
        <path d="M706.81,1651.46c.74,1.27-.54,3.38-2.85,4.71s-4.77,1.38-5.5.11.54-3.37,2.85-4.71S706.08,1650.19,706.81,1651.46Z" transform="translate(-233.75 -121.13)" style="fill: #f4d9b3"/>
        <path d="M666.7,1634.21c-.57,1.55-3.33,2-6.17.93s-4.66-3.15-4.09-4.71,3.34-2,6.17-.93S667.27,1632.65,666.7,1634.21Z" transform="translate(-233.75 -121.13)" style="fill: #fff0e2"/>
      </g>
    </g>
    <g>
      <g>
        <path d="M1486.82,1597.5c1,1.73-.74,4.6-3.88,6.42s-6.5,1.88-7.5.15.74-4.6,3.88-6.41S1485.82,1595.77,1486.82,1597.5Z" transform="translate(-233.75 -121.13)" style="fill: #e8c7a0"/>
        <path d="M1582.84,1605.15c1.24,2.15-.92,5.73-4.84,8s-8.09,2.34-9.33.19.92-5.73,4.83-8S1581.6,1603,1582.84,1605.15Z" transform="translate(-233.75 -121.13)" style="fill: #f4d9b3"/>
        <path d="M1514.82,1575.89c-1,2.65-5.65,3.35-10.45,1.58s-7.91-5.34-6.94-8,5.66-3.35,10.46-1.58S1515.8,1573.25,1514.82,1575.89Z" transform="translate(-233.75 -121.13)" style="fill: #fff0e2"/>
      </g>
      <g>
        <path d="M1556.12,1563.51c1,1.73-.74,4.6-3.88,6.41s-6.5,1.89-7.5.16.74-4.6,3.88-6.42S1555.13,1561.78,1556.12,1563.51Z" transform="translate(-233.75 -121.13)" style="fill: #e8c7a0"/>
        <path d="M1652.14,1571.15c1.24,2.15-.92,5.73-4.83,8s-8.1,2.35-9.34.19.92-5.72,4.84-8S1650.9,1569,1652.14,1571.15Z" transform="translate(-233.75 -121.13)" style="fill: #f4d9b3"/>
        <path d="M1584.13,1541.9c-1,2.64-5.66,3.35-10.46,1.58s-7.9-5.35-6.93-8,5.65-3.34,10.45-1.58S1585.1,1539.26,1584.13,1541.9Z" transform="translate(-233.75 -121.13)" style="fill: #fff0e2"/>
      </g>
      <g>
        <path d="M1581.89,1587.83c.58,1-.42,2.64-2.22,3.68s-3.73,1.08-4.3.09.43-2.64,2.23-3.68S1581.32,1586.84,1581.89,1587.83Z" transform="translate(-233.75 -121.13)" style="fill: #e8c7a0"/>
        <path d="M1636.91,1592.21c.71,1.23-.53,3.28-2.78,4.58s-4.63,1.34-5.34.11.53-3.28,2.77-4.58S1636.19,1591,1636.91,1592.21Z" transform="translate(-233.75 -121.13)" style="fill: #f4d9b3"/>
        <path d="M1597.94,1575.45c-.56,1.51-3.24,1.92-6,.91s-4.53-3.07-4-4.58,3.23-1.92,6-.9S1598.5,1573.94,1597.94,1575.45Z" transform="translate(-233.75 -121.13)" style="fill: #fff0e2"/>
      </g>
    </g>
    <g>
      <g>
        <path d="M1993.7,1755.71c1.15,2-.85,5.27-4.45,7.35s-7.44,2.16-8.59.18.85-5.27,4.45-7.35S1992.56,1753.73,1993.7,1755.71Z" transform="translate(-233.75 -121.13)" style="fill: #e8c7a0"/>
        <path d="M2103.69,1764.47c1.42,2.46-1.06,6.56-5.54,9.15s-9.27,2.69-10.69.22,1.05-6.56,5.54-9.15S2102.27,1762,2103.69,1764.47Z" transform="translate(-233.75 -121.13)" style="fill: #f4d9b3"/>
        <path d="M2025.78,1731c-1.11,3-6.48,3.83-12,1.81s-9-6.12-7.94-9.15,6.48-3.83,12-1.81S2026.89,1727.93,2025.78,1731Z" transform="translate(-233.75 -121.13)" style="fill: #fff0e2"/>
      </g>
      <g>
        <path d="M2073.09,1716.77c1.14,2-.85,5.27-4.45,7.35s-7.45,2.16-8.59.18.85-5.27,4.45-7.35S2072,1714.79,2073.09,1716.77Z" transform="translate(-233.75 -121.13)" style="fill: #e8c7a0"/>
        <path d="M2183.08,1725.53c1.42,2.46-1.06,6.56-5.54,9.15s-9.27,2.68-10.7.22,1.06-6.56,5.54-9.15S2181.65,1723.06,2183.08,1725.53Z" transform="translate(-233.75 -121.13)" style="fill: #f4d9b3"/>
        <path d="M2105.17,1692c-1.12,3-6.48,3.83-12,1.81s-9.06-6.12-7.94-9.15,6.47-3.84,12-1.81S2106.28,1689,2105.17,1692Z" transform="translate(-233.75 -121.13)" style="fill: #fff0e2"/>
      </g>
      <g>
        <path d="M2102.61,1744.63c.65,1.14-.49,3-2.55,4.21s-4.27,1.24-4.92.1.49-3,2.55-4.21S2102,1743.5,2102.61,1744.63Z" transform="translate(-233.75 -121.13)" style="fill: #e8c7a0"/>
        <path d="M2165.62,1749.65c.82,1.41-.6,3.76-3.17,5.24s-5.31,1.54-6.13.13.61-3.76,3.18-5.24S2164.81,1748.24,2165.62,1749.65Z" transform="translate(-233.75 -121.13)" style="fill: #f4d9b3"/>
        <path d="M2121,1730.45c-.64,1.73-3.71,2.2-6.86,1s-5.19-3.51-4.55-5.24,3.71-2.2,6.86-1S2121.63,1728.72,2121,1730.45Z" transform="translate(-233.75 -121.13)" style="fill: #fff0e2"/>
      </g>
    </g>
    <g>
      <g>
        <path d="M2336.92,1809.06c1.14,2-.85,5.27-4.45,7.35s-7.45,2.16-8.59.18.84-5.27,4.45-7.35S2335.77,1807.08,2336.92,1809.06Z" transform="translate(-233.75 -121.13)" style="fill: #e8c7a0"/>
        <path d="M2446.9,1817.82c1.43,2.47-1.05,6.56-5.54,9.15s-9.27,2.69-10.69.22,1.06-6.56,5.54-9.15S2445.48,1815.36,2446.9,1817.82Z" transform="translate(-233.75 -121.13)" style="fill: #f4d9b3"/>
        <path d="M2369,1784.31c-1.11,3-6.47,3.84-12,1.81s-9.06-6.12-7.95-9.15,6.48-3.83,12-1.8S2370.11,1781.29,2369,1784.31Z" transform="translate(-233.75 -121.13)" style="fill: #fff0e2"/>
      </g>
      <g>
        <path d="M2416.3,1770.12c1.14,2-.85,5.27-4.45,7.35s-7.44,2.16-8.59.18.85-5.27,4.45-7.35S2415.16,1768.14,2416.3,1770.12Z" transform="translate(-233.75 -121.13)" style="fill: #e8c7a0"/>
        <path d="M2526.29,1778.88c1.42,2.46-1.06,6.56-5.54,9.15s-9.27,2.69-10.69.22,1.05-6.56,5.54-9.15S2524.86,1776.41,2526.29,1778.88Z" transform="translate(-233.75 -121.13)" style="fill: #f4d9b3"/>
        <path d="M2448.38,1745.37c-1.12,3-6.48,3.83-12,1.81s-9.05-6.12-7.94-9.15,6.48-3.83,12-1.81S2449.49,1742.34,2448.38,1745.37Z" transform="translate(-233.75 -121.13)" style="fill: #fff0e2"/>
      </g>
      <g>
        <path d="M2445.82,1798c.66,1.14-.49,3-2.55,4.21s-4.26,1.24-4.92.11.49-3,2.55-4.21S2445.17,1796.85,2445.82,1798Z" transform="translate(-233.75 -121.13)" style="fill: #e8c7a0"/>
        <path d="M2508.84,1803c.81,1.41-.61,3.76-3.18,5.24s-5.31,1.54-6.12.13.6-3.76,3.17-5.24S2508,1801.59,2508.84,1803Z" transform="translate(-233.75 -121.13)" style="fill: #f4d9b3"/>
        <path d="M2464.2,1783.8c-.64,1.74-3.71,2.2-6.86,1s-5.19-3.51-4.55-5.24,3.71-2.2,6.86-1S2464.84,1782.07,2464.2,1783.8Z" transform="translate(-233.75 -121.13)" style="fill: #fff0e2"/>
      </g>
    </g>
    <g>
      <rect x="1699.81" y="1064.71" width="47.81" height="4.88" rx="2.01" style="fill: #fff"/>
      <rect x="1759.16" y="1064.71" width="68.02" height="4.88" rx="2.01" style="fill: #fff"/>
      <rect x="1723.71" y="1052.81" width="53.36" height="4.88" rx="1.78" style="fill: #fff"/>
      <rect x="1785.07" y="1052.81" width="14.42" height="4.88" rx="0.92" style="fill: #fff"/>
      <rect x="1803.72" y="1052.81" width="14.42" height="4.88" rx="0.92" style="fill: #fff"/>
    </g>
    <g>
      <path d="M2470,1343.43H2366.57a3.42,3.42,0,0,1-3.41-3.41h0a3.43,3.43,0,0,1,3.41-3.42H2470a3.43,3.43,0,0,1,3.42,3.42h0A3.42,3.42,0,0,1,2470,1343.43Z" transform="translate(-233.75 -121.13)" style="fill: #fff"/>
      <path d="M2537.48,1325.68H2434.06a3.42,3.42,0,0,1-3.41-3.42h0a3.42,3.42,0,0,1,3.41-3.42h103.42a3.42,3.42,0,0,1,3.41,3.42h0A3.42,3.42,0,0,1,2537.48,1325.68Z" transform="translate(-233.75 -121.13)" style="fill: #fff"/>
      <path d="M2653.45,1343.43h-150A3.41,3.41,0,0,1,2500,1340h0a3.42,3.42,0,0,1,3.41-3.42h150a3.43,3.43,0,0,1,3.42,3.42h0A3.42,3.42,0,0,1,2653.45,1343.43Z" transform="translate(-233.75 -121.13)" style="fill: #fff"/>
    </g>
    <g>
      <path d="M2706.1,1166.28h-89.37a3,3,0,0,1-3-3h0a3,3,0,0,1,3-3h89.37a3,3,0,0,1,3,3h0A3,3,0,0,1,2706.1,1166.28Z" transform="translate(-233.75 -121.13)" style="fill: #fff"/>
      <path d="M2764.42,1150.93h-89.37a3,3,0,0,1-3-3h0a3,3,0,0,1,3-3h89.37a3,3,0,0,1,2.95,3h0A3,3,0,0,1,2764.42,1150.93Z" transform="translate(-233.75 -121.13)" style="fill: #fff"/>
      <path d="M2864.65,1166.28H2735a3,3,0,0,1-2.95-3h0a3,3,0,0,1,2.95-3h129.65a3,3,0,0,1,2.95,3h0A3,3,0,0,1,2864.65,1166.28Z" transform="translate(-233.75 -121.13)" style="fill: #fff"/>
    </g>
  </g>
</svg>
