<svg id="a32d99a7-193b-42e8-a95e-89a0deff6aee" data-name="Layer 3" xmlns="http://www.w3.org/2000/svg" viewBox="0 0 210.26 242.05">
  <title>login</title>
  <path d="M423.15,173.77c-.61-1.08-1.15-2.14-1.64-3.19A29.22,29.22,0,0,1,423.15,173.77Z" transform="translate(-236.83 -85)" style="fill: #e0faff"/>
  <path d="M423.89,175.76c-.21-.66-.46-1.33-.74-2,.08.15.15.3.24.46A9.16,9.16,0,0,1,423.89,175.76Z" transform="translate(-236.83 -85)" style="fill: #e0faff"/>
  <path d="M425.82,189l0,0h0Z" transform="translate(-236.83 -85)" style="fill: #e0faff"/>
  <path d="M429.79,108.58v46c-.77.81-1.47,1.69-2.17,2.56a10,10,0,0,1,1.74-6.34c-4.1-4.63-9.25-6.65-10.71-6.87a.28.28,0,0,0-.32.23,41.34,41.34,0,0,0,3.18,26.39,50.23,50.23,0,0,0-7.45-9.61c-7.1-5.7-14.93-9.84-24.33-8.92a26.24,26.24,0,0,0-8.27,2.11.29.29,0,0,0-.15.4,47.52,47.52,0,0,0,10.54,12.79,6.35,6.35,0,0,1,5.25-1.79c-1.22,1.51-1,3.34-1.64,4.77a66.72,66.72,0,0,0,16.18,8.9l.94.49c-6.29-2.08-13.3-2.46-19.35.62-4.32,2.21-7.79,4.94-10.2,9.3a.29.29,0,0,0,.09.39,17.51,17.51,0,0,0,8.49,2.52c.61,0,1.41.11,2.35.16a20.66,20.66,0,0,1,2.64-3.78l.42,3.88a37.58,37.58,0,0,0,10.87-1.35c-9.45,3.52-14.22,10.2-15.39,14.48a.32.32,0,0,0,.35.39,7.43,7.43,0,0,1,3.14.29,10,10,0,0,0-3.83,1.37.37.37,0,0,0-.16.26,16.05,16.05,0,0,0,1.8,9.89,17.65,17.65,0,0,0,1.37,2.13.29.29,0,0,0,.26.11,15.37,15.37,0,0,0,6.27-2.52A33.84,33.84,0,0,0,407,213.5c1-1,2-2,2.85-3a62.19,62.19,0,0,0,6.33-8.31,26.35,26.35,0,0,0,2.25-4.43c.08-.2.16-.4.26-.61a27.05,27.05,0,0,0,1.76-4.1,4.67,4.67,0,0,0,.49,3.08c.09.17.17.34.26.5l.7-.41a4.58,4.58,0,0,0,4.54.3c.14-.06.26-.11.39-.18a.34.34,0,0,0,0,.1c-.06.16-.12.33-.17.51a1.1,1.1,0,0,0-.05.4,1,1,0,0,0,0,.24,1.16,1.16,0,0,0,.15.43,1.32,1.32,0,0,0,.12.2s0,0,0,0l.05.07v.09c0,1.73.11,3.62.25,5.64.05.68.1,1.37.16,2.07l.18,1.78c.25,2.32.6,4.78,1.08,7.32.14.74.29,1.48.45,2.24,0,.07,0,.14.05.21l.27,1.19c.13.56.27,1.12.42,1.69v59l-4.84,0h0q-10.83-.08-21.68,0h0c-8.7,0-17.4.11-26.1.19h-.66l-1.49,0h-.88l-13.64.09h-2a0,0,0,0,1-.05,0l-4.14,0h-5q-9.25,0-18.51,0H314.75c-1.13,0-2.27,0-3.4,0h-3.41l-9.78,0h-5.58l-10.84,0h-2.85q-9,0-18.08.06h0l-15.57,0-6.89,0V108.58A23.65,23.65,0,0,1,261.91,85H406.22A23.64,23.64,0,0,1,429.79,108.58Z" transform="translate(-236.83 -85)" style="fill: #e0faff"/>
  <path d="M367.46,107.66a16.28,16.28,0,0,0-.88,2.46A1.81,1.81,0,0,0,367.46,107.66Z" transform="translate(-236.83 -85)" style="fill: #e0faff"/>
  <path d="M406.22,85H353c-1.72,11.43-2.13,25.66,10.45,25.66.57,0,3.92-1,3.12-.54-2.57,9.58,6.65,15.62,15.88,16.54,6,1,13,0,19-1,6-2,11-4,15-9-2.61,7.2,5.47,9.68,13.33,10.26V108.58A23.64,23.64,0,0,0,406.22,85Z" transform="translate(-236.83 -85)" style="fill: #fff"/>
  <path d="M277.46,133.66c3-4,2-9,2-13,15,4,32-4,28-22,14.85,6.75,29.24-1.09,36.1-13.66H261.91a23.65,23.65,0,0,0-23.58,23.58v28.07C250.57,143,267.53,142.88,277.46,133.66Z" transform="translate(-236.83 -85)" style="fill: #fff"/>
  <path d="M429.79,220.53v59l-4.84,0h0q-10.83-.08-21.68,0h0c-8.7,0-17.4.11-26.1.19h-.66l-1.49,0h-.88l-13.64.09h-2a0,0,0,0,1-.05,0l-4.14,0h-5q-9.25,0-18.51,0c0-.2-.06-.4-.08-.6a.83.83,0,0,1,0-.22.09.09,0,0,1,0-.07c-.05-.31-.09-.62-.13-.93s-.08-.77-.11-1.16a2.83,2.83,0,0,1,0-.29h0c0-.31-.06-.62-.07-.93a4.19,4.19,0,0,1,0-.5c0-.26,0-.51,0-.77,0-.67,0-1.34,0-2,0-.23,0-.46,0-.69,0-.46,0-.93.06-1.39,0-.72.1-1.43.18-2.14q0-.5.12-1v0c0-.33.09-.65.14-1s.14-.85.23-1.28h0q.07-.45.18-.9a36.7,36.7,0,0,1,2.75-8.21,30.13,30.13,0,0,1,3.3-5.43c.28-.38.58-.75.89-1.11.09-.12.19-.23.29-.34.31-.36.63-.7,1-1l.3-.31,0,0h0l.37-.36.46-.43a1.29,1.29,0,0,1,.18-.16h0a3.77,3.77,0,0,1,1.62-.94l.19-.05h0a5,5,0,0,1,3.91,1,10.93,10.93,0,0,1,1.84,1.57h0l.36.4h0a13,13,0,0,1,.87,1.16c-.13-.51-.24-1-.32-1.51s-.17-1.11-.22-1.64-.06-1.2-.05-1.77a2.26,2.26,0,0,1,0-.26h0c0-.22,0-.44,0-.65s0-.4.05-.6a.13.13,0,0,0,0-.06,12.94,12.94,0,0,1,.66-2.71h0a2.31,2.31,0,0,1,.1-.28v0a12.55,12.55,0,0,1,1.27-2.44s0,0,0,0c.12-.18.24-.37.38-.55a10.39,10.39,0,0,1,.74-.9.05.05,0,0,1,0,0l0,0,0,0,.17-.19c.29-.31.59-.61.91-.89a14.9,14.9,0,0,1,1.23-1l.42-.3h0a1.43,1.43,0,0,1,.22-.15,12.32,12.32,0,0,1,1.05-.65h0a.05.05,0,0,1,0,0c5.36-3,12.75-3.74,19.17-2.26,3,1,6,2,8,4-.72-6.44,4.2-13.9,10.34-16.52a17.65,17.65,0,0,0,1.37,2.13.29.29,0,0,0,.26.11,15.37,15.37,0,0,0,6.27-2.52c1.17.81,3.83.94,4.76,2.8a26.64,26.64,0,0,1,.5-7.16c1-1,2-2,2.85-3a62.19,62.19,0,0,0,6.33-8.31,26.35,26.35,0,0,0,2.25-4.43c.08-.2.16-.4.26-.61a18.23,18.23,0,0,1,2.25-1c.09.17.17.34.26.5l.7-.41a4.58,4.58,0,0,0,4.54.3c.14-.06.26-.11.39-.18a.34.34,0,0,0,0,.1c-.06.16-.12.33-.17.51a1.1,1.1,0,0,0-.05.4,1,1,0,0,0,0,.24,1.16,1.16,0,0,0,.15.43,1.32,1.32,0,0,0,.12.2s0,0,0,0l.05.07v.09c0,1.73.11,3.62.25,5.64.05.68.1,1.37.16,2.07l.18,1.78c.25,2.32.6,4.78,1.08,7.32.14.74.29,1.48.45,2.24,0,.07,0,.14.05.21l.27,1.19C429.5,219.4,429.64,220,429.79,220.53Z" transform="translate(-236.83 -85)" style="fill: #fff"/>
  <path d="M362.46,262.66c-1-12-10-22-23-19-3-15-22-32-36-19-1-5-1-10-4-14-12-15-36-11-49,0-2-10-2-21-10-28a24.63,24.63,0,0,0-2.13-1.42v98.84c37-.1,73.92-.27,110.88-.27q4.59,0,9.18,0a.75.75,0,0,0,.07-.12C361.46,274.66,362.46,268.66,362.46,262.66Z" transform="translate(-236.83 -85)" style="fill: #fff"/>
  <g>
    <g>
      <path d="M336,188.78a.13.13,0,0,0-.09-.16,10.8,10.8,0,0,0-2.82-.41,7.3,7.3,0,0,0-.81,0h-.09a11.33,11.33,0,0,0-1.44.16,4.15,4.15,0,0,0-.48.11c-.3.06-.61.13-.9.21l-.55.2c-.25.09-.5.18-.75.29s-.38.18-.56.27-.45.22-.67.35l-.57.35c-.2.12-.4.25-.59.39s-.38.27-.57.42-.37.27-.54.42l-.56.48c-.17.15-.34.3-.5.46s-.37.35-.56.54l-.27.26,0,.07-.36.36-.45.65a18.23,18.23,0,0,0-2.05,3.48,17.94,17.94,0,0,0-.38-11.1.11.11,0,0,0-.15-.08,9.71,9.71,0,0,0-4.2,3.62,4.34,4.34,0,0,1,1.15,2.63,12,12,0,0,0-1.79-1.47,6.41,6.41,0,0,0-.35.84c-.06.15-.1.31-.15.47s-.09.28-.13.43-.09.44-.12.66-.05.21-.06.32a6.48,6.48,0,0,0-.06.77,2.45,2.45,0,0,0,0,.27c0,.28,0,.56,0,.85,0,.09,0,.18,0,.27,0,.29.08.59.13.9a2.7,2.7,0,0,0,0,.28c.06.3.14.62.23.93,0,.11,0,.22.08.34.09.3.21.61.33.92.05.13.08.24.13.37v0s0,.08.05.13a.14.14,0,0,1-.24.13c-2.31-3.13-4.81-4.48-7-4.92a.15.15,0,0,0-.16.13,3.32,3.32,0,0,1-.3,1.23,3.7,3.7,0,0,0-.37-1.42.2.2,0,0,0-.12-.08,10.42,10.42,0,0,0-5.59,1.08.13.13,0,0,0-.05.2c3.9,5.61,7.59,6.78,9,7h0c.39.07.6.07.57.08h0c-.31,0-.61.06-.91.1a11.83,11.83,0,0,0-1.27.28,6.24,6.24,0,0,0-1.52.6,7.9,7.9,0,0,0-1.77,1.18h0a6.25,6.25,0,0,0-.45.44,5,5,0,0,0-.38.45.14.14,0,0,0,.06.21,3.84,3.84,0,0,1,.49.27,2.1,2.1,0,0,1,.41.38,3,3,0,0,0-1.4-.13h0a.18.18,0,0,0-.11.07,6.56,6.56,0,0,0-.44.88c0,.1-.07.19-.11.28s-.14.38-.2.56l-.08.32c0,.16-.07.32-.1.48s0,.2,0,.3,0,.29,0,.43,0,.17,0,.26v.38a1.55,1.55,0,0,0,0,.22,3.25,3.25,0,0,0,0,.33c0,.06,0,.12,0,.17s0,.19,0,.27,0,.08,0,.11h0c0,.1,0,.18.05.24a.14.14,0,0,0,.12.1c.52,0,8.53-.85,11.62-6.54a2.32,2.32,0,0,0-.15.81.74.74,0,0,0-.22.44l-.19,1.2a.82.82,0,0,0,.21.7l.49.55a.89.89,0,0,0,.57.28l1.6.12a.84.84,0,0,0,.72-.33s0,.09,0,.13a5.46,5.46,0,0,1,.09,1.51,29.77,29.77,0,0,1-2.11,12.32,40.77,40.77,0,0,1-2.39,5.68,1.05,1.05,0,0,0,.16.4,19.35,19.35,0,0,0,3.57-.08c.14,0,.28,0,.43-.07a40.39,40.39,0,0,0,2.33-15.18c0-.74-.07-1.47-.13-2.21,0-.38-.38-1.65-.2-2,0,0,0,0,0,0l1.48.11a.86.86,0,0,0,.8-.41l.69-1.18a1.11,1.11,0,0,0,.07-.16c.21.31.44.63.6.91a10.82,10.82,0,0,0,1.24,1.77,25.78,25.78,0,0,0,3.24,3.2c1.83,1.52,4.3,3.39,6.81,3.38a.12.12,0,0,0,.11-.07,7.07,7.07,0,0,0,.63-5.38.22.22,0,0,0-.09-.1,4.28,4.28,0,0,0-1.74-.35,3.15,3.15,0,0,1,1.34-.32.14.14,0,0,0,.13-.19c-.77-1.77-3.24-4.36-7.53-5.3a16.39,16.39,0,0,0,4.77-.09l-.06-1.7a9.45,9.45,0,0,1,1.37,1.47l1-.21a7.6,7.6,0,0,0,3.5-1.61.14.14,0,0,0,0-.18,9.83,9.83,0,0,0-5-3.37h0a8.16,8.16,0,0,0-1-.26l-.34-.06-.63-.09-.43,0-.52,0h-.51l-.37,0a12.3,12.3,0,0,0-3.16.73h0a7.93,7.93,0,0,0-1.41.59l.34-.24a29.35,29.35,0,0,0,6.43-4.84c-.37-.58-.39-1.38-1-2a2.77,2.77,0,0,1,2.37.46A20.87,20.87,0,0,0,336,188.78Z" transform="translate(-236.83 -85)" style="fill: #e6c491"/>
      <path d="M314.7,230c-1.9-4-6.92-2.25-6.92-2.25,3,.21,3.18.76,5.81,2.24Z" transform="translate(-236.83 -85)" style="fill: #e6c491"/>
      <path d="M316.62,229.88c.8-.1,1.61-.29,2.42-.47a7.27,7.27,0,0,1,4.08-.43s-4.6-2.59-7.17,1C316.17,229.92,316.4,229.91,316.62,229.88Z" transform="translate(-236.83 -85)" style="fill: #e6c491"/>
      <path d="M322.84,223.76s-5.91-.69-6.38,4.49C320,225.37,319.55,224.74,322.84,223.76Z" transform="translate(-236.83 -85)" style="fill: #e6c491"/>
      <path d="M312.19,225.1a3.59,3.59,0,0,1,2.68,4.44A3.82,3.82,0,0,1,312.19,225.1Z" transform="translate(-236.83 -85)" style="fill: #e6c491"/>
      <path d="M320.83,225.61a3.59,3.59,0,0,0-3.73,3.6S320.64,229.09,320.83,225.61Z" transform="translate(-236.83 -85)" style="fill: #e6c491"/>
    </g>
    <path d="M271.49,246.35s29.66-22.33,48-19c24.33,4.39,37.8,19.2,37.8,19.2Z" transform="translate(-236.83 -85)" style="fill: #e6c491"/>
  </g>
  <rect x="1.5" y="170.73" width="191.46" height="71.32" style="fill: #fff3a1"/>
  <path d="M429.79,278.1V243.16H238.33v33.62c2.36,1.74,8.07,5,17.19,4.12a45.8,45.8,0,0,0,13.92-3.81,20.34,20.34,0,0,1,16.91.34c5.24,2.52,13.33,4.85,25.07,4.47,9.8-.31,16.29-2.33,20.58-4.66a20.14,20.14,0,0,1,17.31-.88,43.42,43.42,0,0,0,15.74,3.15,48.75,48.75,0,0,0,17.21-2.58,22.47,22.47,0,0,1,16.65.77C416,285.52,423.35,279.15,429.79,278.1Z" transform="translate(-236.83 -85)" style="fill: #e6c491"/>
  <path d="M429.79,275.1V240.16H238.33v33.62c2.36,1.74,8.07,5,17.19,4.12a45.8,45.8,0,0,0,13.92-3.81,20.34,20.34,0,0,1,16.91.34c5.24,2.52,13.33,4.85,25.07,4.47,9.8-.31,16.29-2.33,20.58-4.66a20.14,20.14,0,0,1,17.31-.88,43.42,43.42,0,0,0,15.74,3.15,48.75,48.75,0,0,0,17.21-2.58,22.47,22.47,0,0,1,16.65.77C416,282.52,423.35,276.15,429.79,275.1Z" transform="translate(-236.83 -85)" style="fill: #d1baf7"/>
  <path d="M369.35,240.55a32.71,32.71,0,0,0,4.1-.39H357.21C361.25,240.4,365.29,240.66,369.35,240.55Z" transform="translate(-236.83 -85)" style="fill: #e3d3f4"/>
  <path d="M276.9,247.45c15.37.52,30.58.87,45.75-1.41l-2-.63a1.82,1.82,0,0,1,.48-3.56c6.57-.36,13.61,1.55,20-.49a1.86,1.86,0,0,1,.93-1.2H293.67a1.51,1.51,0,0,1-.8,2.3c-7.74,3-16,3-24.12,3.53A37.9,37.9,0,0,1,276.9,247.45Z" transform="translate(-236.83 -85)" style="fill: #e3d3f4"/>
  <path d="M238.72,249.68a.61.61,0,0,1,.41-.12c10.19,1.06,22,2.7,32.33.11-5.44-.76-11-.61-16.38-1.94a1.47,1.47,0,0,1,0-2.81c10.2-2.24,21-1.23,31.12-3.58-4.75-.25-9.76.49-14.06-1.18H238.33v9.47Z" transform="translate(-236.83 -85)" style="fill: #e3d3f4"/>
  <path d="M331.58,247c25.81,1.52,51.42,4.46,77.08.72-2.64-.54-5.29-1-7.92-1.62-1.67-.39-1.24-2.89.39-2.91,6.63-.1,13.12-1.49,19.59-3H389.1c-6.2,1.63-12.41,3.36-18.83,3.65-8.46.38-16.87-.9-25.32-.53a1.31,1.31,0,0,1-.61.55c-4.24,1.83-8.58,2-13,1.81A1.91,1.91,0,0,1,331.58,247Z" transform="translate(-236.83 -85)" style="fill: #e3d3f4"/>
  <path d="M444.34,266.68c-1.86.25-3.44-.66-5.33-.52-4.87.36-8.29,5.48-12.89,7A16.46,16.46,0,0,1,407.5,270c-2.38-2.43-3.4-6.12-7.16-4.56-2.42,1-4.67,2.53-7.29,3-2.2.38-4.25-1.25-6.48-.65-1.37.37-2.51,1.24-4,1.53-3.55.71-8.16.52-10.22-3-1.44-2.44-.84-5.09.38-7.46-3.81-1.3-8.12,3.89-11.14,5.54s-6.15,3-9.47,3.07c-5.06.13-9.07-3.42-14.29-2.59-6.25,1-11.91,5.75-18.35,2.62-1.63-.79-3-2.16-4.89-2.12a32.07,32.07,0,0,0-4.85.89,33.1,33.1,0,0,1-17.21-1.54c-5-1.7-10.57-5-16-3.39-5,1.47-9,4.27-14.4,4.35a3.08,3.08,0,0,1-1.3-.25c-2,.4-4.06-.24-6.13-2.75-1.13-1.36-4.16-6.22-6.2-3.87-.58.68,3.59,3.16,4.1,4.17,1.43,2.85-.2,6.17-2.57,8a10.86,10.86,0,0,1-6.75,2.06c-1.08-.05-6.29-1.05-6.45-2.49.08.75.16,1.49.25,2.23,0,0,6.13,6.32,18.44,5.17a45.8,45.8,0,0,0,13.92-3.81,20.34,20.34,0,0,1,16.91.34c5.24,2.52,13.33,4.85,25.07,4.47,9.8-.31,16.29-2.33,20.58-4.66a20.14,20.14,0,0,1,17.31-.88,43.42,43.42,0,0,0,15.74,3.15,48.75,48.75,0,0,0,17.21-2.58,22.47,22.47,0,0,1,16.65.77c17.7,8.13,25,.93,31.63.31,13-1.15,15,5.19,15,5.17l1.53-13.82A21.91,21.91,0,0,0,444.34,266.68ZM281,267.27c-1,.14-1.94.18-2.21.2-1.51.08-6.57.82-7.39-1-1.23-2.72,9.46-2.23,10.71-1.83a2.46,2.46,0,0,1,1.44,1C284.17,266.59,282.54,267.06,281,267.27Zm24.23,3.33c-3.05.65-6.41.15-9.5.06-.83,0-.83-1.45,0-1.48,3.09-.09,6.45-.59,9.5.07A.74.74,0,0,1,305.25,270.6Z" transform="translate(-236.83 -85)" style="fill: #fff"/>
  <g>
    <ellipse cx="92.76" cy="206.3" rx="55.26" ry="6.1" style="fill: #e6c491;opacity: 0.5700000000000001"/>
    <g>
      <path d="M354.82,274.35H316.57l.85-1.5c.22-.39,5.59-9.61,20.3-9.61,6.62,0,10.77,2.62,13.08,4.83a14.86,14.86,0,0,1,3.5,4.92Zm-34.53-2h31.42c-1.46-2.4-5.4-7.08-14-7.08C327.73,265.26,322.41,269.88,320.29,272.34Z" transform="translate(-236.83 -85)" style="fill: #3b6e96"/>
      <path d="M312,288.73H297.1l-8-15.53H325.8Zm-13.49-2.3H311l9.72-10.93H292.91Z" transform="translate(-236.83 -85)" style="fill: #3b6e96"/>
      <path d="M372.4,288.52H362l-6.1-15.12h24.64Zm-9.16-1.89h8l6.08-11.34H358.67Z" transform="translate(-236.83 -85)" style="fill: #3b6e96"/>
      <g>
        <g>
          <polygon points="44.12 186.65 37.49 191.55 42.55 191.55 49.17 186.65 44.12 186.65" style="fill: #a1cdf0"/>
          <polygon points="49.17 186.65 49.17 188.77 42.55 194.01 42.55 191.55 49.17 186.65" style="fill: #57a2de"/>
          <rect x="37.49" y="191.55" width="5.06" height="2.46" style="fill: #57a2de"/>
        </g>
        <g>
          <polygon points="50.96 186.65 44.33 191.55 49.38 191.55 56.01 186.65 50.96 186.65" style="fill: #a1cdf0"/>
          <polygon points="56.01 186.65 56.01 188.77 49.39 194.01 49.38 191.55 56.01 186.65" style="fill: #57a2de"/>
          <rect x="44.33" y="191.55" width="5.06" height="2.46" style="fill: #57a2de"/>
        </g>
        <g>
          <polygon points="57.79 186.65 51.16 191.55 56.21 191.55 62.84 186.65 57.79 186.65" style="fill: #a1cdf0"/>
          <polygon points="62.84 186.65 62.84 188.77 56.22 194.01 56.21 191.55 62.84 186.65" style="fill: #57a2de"/>
          <rect x="51.16" y="191.55" width="5.06" height="2.46" style="fill: #57a2de"/>
        </g>
        <g>
          <polygon points="64.62 186.65 57.99 191.55 63.05 191.55 69.67 186.65 64.62 186.65" style="fill: #a1cdf0"/>
          <polygon points="69.67 186.65 69.67 188.77 63.05 194.01 63.05 191.55 69.67 186.65" style="fill: #57a2de"/>
          <rect x="57.99" y="191.55" width="5.06" height="2.46" style="fill: #57a2de"/>
        </g>
        <g>
          <polygon points="71.46 186.65 64.83 191.55 69.88 191.55 76.51 186.65 71.46 186.65" style="fill: #a1cdf0"/>
          <polygon points="76.51 186.65 76.51 188.77 69.89 194.01 69.88 191.55 76.51 186.65" style="fill: #57a2de"/>
          <rect x="64.83" y="191.55" width="5.06" height="2.46" style="fill: #57a2de"/>
        </g>
        <g>
          <polygon points="78.29 186.65 71.66 191.55 76.71 191.55 83.34 186.65 78.29 186.65" style="fill: #a1cdf0"/>
          <polygon points="83.34 186.65 83.34 188.77 76.72 194.01 76.71 191.55 83.34 186.65" style="fill: #57a2de"/>
          <rect x="71.66" y="191.55" width="5.06" height="2.46" style="fill: #57a2de"/>
        </g>
        <g>
          <polygon points="85.12 186.65 78.5 191.55 83.55 191.55 90.17 186.65 85.12 186.65" style="fill: #a1cdf0"/>
          <polygon points="90.17 186.65 90.17 188.77 83.56 194.01 83.55 191.55 90.17 186.65" style="fill: #57a2de"/>
          <rect x="78.49" y="191.55" width="5.06" height="2.46" style="fill: #57a2de"/>
        </g>
        <g>
          <polygon points="91.96 186.65 85.33 191.55 90.38 191.55 97.01 186.65 91.96 186.65" style="fill: #a1cdf0"/>
          <polygon points="97.01 186.65 97.01 188.77 90.39 194.01 90.38 191.55 97.01 186.65" style="fill: #57a2de"/>
          <rect x="85.33" y="191.55" width="5.06" height="2.46" style="fill: #57a2de"/>
        </g>
        <g>
          <polygon points="98.79 186.65 92.16 191.55 97.21 191.55 103.84 186.65 98.79 186.65" style="fill: #a1cdf0"/>
          <polygon points="103.84 186.65 103.84 188.77 97.22 194.01 97.21 191.55 103.84 186.65" style="fill: #57a2de"/>
          <rect x="92.16" y="191.55" width="5.06" height="2.46" style="fill: #57a2de"/>
        </g>
        <g>
          <polygon points="105.62 186.65 99 191.55 104.05 191.55 110.67 186.65 105.62 186.65" style="fill: #a1cdf0"/>
          <polygon points="110.67 186.65 110.67 188.77 104.06 194.01 104.05 191.55 110.67 186.65" style="fill: #57a2de"/>
          <rect x="98.99" y="191.55" width="5.06" height="2.46" style="fill: #57a2de"/>
        </g>
        <g>
          <polygon points="112.46 186.65 105.83 191.55 110.88 191.55 117.51 186.65 112.46 186.65" style="fill: #a1cdf0"/>
          <polygon points="117.51 186.65 117.51 188.77 110.89 194.01 110.88 191.55 117.51 186.65" style="fill: #57a2de"/>
          <rect x="105.83" y="191.55" width="5.06" height="2.46" style="fill: #57a2de"/>
        </g>
        <g>
          <polygon points="119.29 186.65 112.66 191.55 117.71 191.55 124.34 186.65 119.29 186.65" style="fill: #a1cdf0"/>
          <polygon points="124.34 186.65 124.34 188.77 117.72 194.01 117.71 191.55 124.34 186.65" style="fill: #57a2de"/>
          <rect x="112.66" y="191.55" width="5.06" height="2.46" style="fill: #57a2de"/>
        </g>
        <g>
          <polygon points="126.12 186.65 119.5 191.55 124.55 191.55 131.18 186.65 126.12 186.65" style="fill: #a1cdf0"/>
          <polygon points="131.18 186.65 131.18 188.77 124.56 194.01 124.55 191.55 131.18 186.65" style="fill: #57a2de"/>
          <rect x="119.49" y="191.55" width="5.06" height="2.46" style="fill: #57a2de"/>
        </g>
        <g>
          <polygon points="132.96 186.65 126.33 191.55 131.38 191.55 138.01 186.65 132.96 186.65" style="fill: #a1cdf0"/>
          <polygon points="138.01 186.65 138.01 188.77 131.39 194.01 131.38 191.55 138.01 186.65" style="fill: #57a2de"/>
          <rect x="126.33" y="191.55" width="5.06" height="2.46" style="fill: #57a2de"/>
        </g>
        <g>
          <polygon points="139.79 186.65 133.16 191.55 138.21 191.55 144.84 186.65 139.79 186.65" style="fill: #a1cdf0"/>
          <polygon points="144.84 186.65 144.84 188.77 138.22 194.01 138.21 191.55 144.84 186.65" style="fill: #57a2de"/>
          <rect x="133.16" y="191.55" width="5.06" height="2.46" style="fill: #57a2de"/>
        </g>
      </g>
      <rect x="37.49" y="191.55" width="100.73" height="2.68" style="fill: #57a2de"/>
      <path d="M302.4,293.76H286l-8.78-17.14h40.45Zm-14.89-2.54h13.75L312,279.16H281.34Z" transform="translate(-236.83 -85)" style="fill: #4a8abd"/>
      <path d="M369.05,293.53H357.54l-6.73-16.68H378ZM359,291.45h8.86l6.71-12.51H353.9Z" transform="translate(-236.83 -85)" style="fill: #4a8abd"/>
      <g>
        <path d="M337.26,227.93s-2,2.53,4.65,5.48,9.09,2.69,13.79,6.5c4.26,3.46,6.12,2.32,7.79.37,0,0-8.35-5.44-11.34-8.14s-5.75-5.17-9-5.67S338.4,226.67,337.26,227.93Z" transform="translate(-236.83 -85)" style="fill: #ffa46c"/>
        <g>
          <path d="M295.1,271.46a27.42,27.42,0,0,0,3.49,1.13,1.58,1.58,0,0,0,1.2-.25c.2-.1.35-.23.48,0a6.67,6.67,0,0,1,.64,1.61c0,.17,0,.27-.18.36-.64.35-1.86,1.66-2.12,1.78a.53.53,0,0,1-.61-.13c-.16-.13-1.95-1.52-2.28-1.66a2.44,2.44,0,0,1-1.08-.62,3.44,3.44,0,0,1-1.22-2.32C293.51,270.34,294.72,271.19,295.1,271.46Z" transform="translate(-236.83 -85)" style="fill: #ffb9b6"/>
          <g>
            <path d="M336.06,272.79c-2.3-1.6-4.79-3.2-7.2-4.66-1.22-.73-2.45-1.41-3.62-2a17.91,17.91,0,0,0-1.64-.73c-.23-.09-.44-.15-.51-.19s0,0,.07-.06l.26-.11.07,0-.06,0-.13,0L314.87,268c-2.83,1-5.67,1.92-8.55,2.8l-.77-1.59c2.49-1.71,5-3.33,7.55-4.93s5.09-3.15,7.77-4.65l.13-.07.06,0,.2-.09a5.83,5.83,0,0,1,.79-.25,6.51,6.51,0,0,1,1.19-.14,10.72,10.72,0,0,1,1.7.1,23.74,23.74,0,0,1,2.63.55c1.63.43,3.12,1,4.6,1.51,3,1.11,5.71,2.35,8.55,3.74Z" transform="translate(-236.83 -85)" style="fill: #e6a6a4"/>
            <path d="M301.09,267.36a28,28,0,0,0,3.41,1.44,1.56,1.56,0,0,0,1.22-.15c.22-.08.37-.19.48,0a6.62,6.62,0,0,1,.51,1.66c0,.19,0,.28-.22.36-.67.29-2,1.5-2.28,1.59a.53.53,0,0,1-.6-.18,26,26,0,0,0-2.14-1.87,2.42,2.42,0,0,1-1-.71,3.42,3.42,0,0,1-1-2.43C299.6,266.1,300.73,267.06,301.09,267.36Z" transform="translate(-236.83 -85)" style="fill: #e6a6a4"/>
          </g>
          <path d="M337.55,273.35c-1.87-.47-3.38-1-4.91-1.41s-3-.84-4.38-1.13a19.87,19.87,0,0,0-4-.46,9.25,9.25,0,0,0-1.74.17l-.22,0-.32.07-.63.14-1.25.27c-3.35.68-6.67,1.15-9.93,1.57a61.87,61.87,0,0,0-9.48,1.67l-.81-1.58a27.47,27.47,0,0,1,4.56-2.44c1.56-.67,3.11-1.29,4.67-1.87,3.1-1.18,6.15-2.28,9.07-3.54l1.09-.48.54-.24L320,264l.37-.14a14.93,14.93,0,0,1,3.08-.77,25.64,25.64,0,0,1,5.77-.17,50.61,50.61,0,0,1,5.29.66c1.67.28,3.33.61,4.69.77Z" transform="translate(-236.83 -85)" style="fill: #ffb9b6"/>
          <path d="M353.85,235.45s-3.29,9.34,2.56,15.36c5.17,5.33-1.62,13-6.36,12.38-8-1.05-14.76-12.42-11-16.63s10.8-13.87,10.8-13.87Z" transform="translate(-236.83 -85)" style="fill: #074e5e"/>
          <g>
            <g>
              <rect x="345.14" y="240.21" width="3.48" height="3.32" transform="translate(-234.11 402.59) rotate(-70.41)" style="fill: #ffb9b6"/>
              <path d="M345.32,241.31l.58-1.64,3.13,1.11-.58,1.64a3.19,3.19,0,0,1-1.67-.26A3.33,3.33,0,0,1,345.32,241.31Z" transform="translate(-236.83 -85)" style="fill: #e6a6a4"/>
            </g>
            <g>
              <path d="M346.61,230.82a1.41,1.41,0,0,1,1.58-.21l5.61,2.69-3.59,6.4a2.39,2.39,0,0,1-2.3,1.32h0a5.92,5.92,0,0,1-1.39-.23,3.24,3.24,0,0,1-2-4.12c.7-2.12,1.78-5.34,1.78-5.34A1.4,1.4,0,0,1,346.61,230.82Z" transform="translate(-236.83 -85)" style="fill: #ffb9b6"/>
              <path d="M353.1,231.16c.4.39.79.79,1.15,1.21a3.31,3.31,0,0,1,.68,3.08c-.05.18-.1.35-.15.5s-.12.39-.18.59a5.5,5.5,0,0,1-2.29,2.94,3.81,3.81,0,0,1-1,.43,8.31,8.31,0,0,0,.78-4.33,20.52,20.52,0,0,1,0-4.38A5,5,0,0,1,353.1,231.16Z" transform="translate(-236.83 -85)" style="fill: #074e5e"/>
              <path d="M352,229.84c1.86,1,3.28,2.8,2.84,4.81a5,5,0,0,1-.64,1.62c-.19.28-.54-.26-.88-.14-2.26.76-4.13-2.36-4.7-4.35-1.86,1.26-2.62,1.45-3,1.19C345,232.53,346.64,227.08,352,229.84Z" transform="translate(-236.83 -85)" style="fill: #074e5e"/>
              <path d="M352.62,237.61a1.33,1.33,0,0,0-.41-1.79c-.53-.29-1.76,2.36-.94,2.52A1.3,1.3,0,0,0,352.62,237.61Z" transform="translate(-236.83 -85)" style="fill: #ffb1b7"/>
            </g>
          </g>
          <g>
            <g>
              <path d="M323.74,239.75a4.69,4.69,0,0,0-.75-1.32,2.84,2.84,0,0,0-1.46-1.19c-.3-.08-.53.26-.68.45l-1.44,1.77-.33.41a.33.33,0,0,0,0,.37l1,1.64a2.15,2.15,0,0,0,2.09,1,1.53,1.53,0,0,0,.68-.26,3.06,3.06,0,0,0,1-1.54,1.79,1.79,0,0,0,0-.92A2.12,2.12,0,0,0,323.74,239.75Z" transform="translate(-236.83 -85)" style="fill: #e6a6a4"/>
              <path d="M324.83,238.33a7.43,7.43,0,0,1-.25,1.86,4.63,4.63,0,0,1-1,1.85l-.1.12a1.12,1.12,0,0,1-1.66-1.49,1.14,1.14,0,0,1,.41-.29,2.71,2.71,0,0,0,1-.83,5.8,5.8,0,0,0,.78-1.35v0a.42.42,0,0,1,.8.16Z" transform="translate(-236.83 -85)" style="fill: #e6a6a4"/>
              <path d="M319.47,240.76c-.56-.51-1.06-1-1.57-1.54s-1-1.06-1.46-1.61a.41.41,0,0,1,0-.58.4.4,0,0,1,.55,0c.52.49,1,1,1.58,1.42s1.09.92,1.63,1.33h0a.62.62,0,0,1,.13.87.63.63,0,0,1-.87.13Z" transform="translate(-236.83 -85)" style="fill: #e6a6a4"/>
              <path d="M320,239.57a11.12,11.12,0,0,1-.8-.94c-.25-.31-.49-.63-.73-.95-.46-.64-.91-1.3-1.34-2a.41.41,0,0,1,.13-.56.42.42,0,0,1,.55.09q.71.93,1.47,1.8c.25.29.51.57.77.85s.54.56.8.79h0a.62.62,0,0,1,.05.87.63.63,0,0,1-.88.05Z" transform="translate(-236.83 -85)" style="fill: #e6a6a4"/>
              <path d="M320.37,238.42c-.29-.64-.64-1.3-1-1.93s-.74-1.27-1.14-1.89a.41.41,0,0,1,.67-.48c.46.59.91,1.2,1.34,1.82s.84,1.24,1.23,1.93a.62.62,0,1,1-1.07.61l0,0Z" transform="translate(-236.83 -85)" style="fill: #e6a6a4"/>
              <path d="M321.69,238.56l-1.19-4v0a.41.41,0,0,1,.77-.27l1.6,3.93a.61.61,0,0,1-.34.8.62.62,0,0,1-.81-.34s0,0,0,0Z" transform="translate(-236.83 -85)" style="fill: #e6a6a4"/>
            </g>
            <path d="M344,249.12l-12.82,3.18a3.32,3.32,0,0,1-2-.26,3.28,3.28,0,0,1-.84-.57c-.12-.11-.25-.26-.33-.35l-.12-.17-1-1.31L325,247l-3.84-5.25,1.67-1.43,4.58,4.63,2.28,2.31,1.15,1.16.14.14,0-.06a1.07,1.07,0,0,0-.16-.14.8.8,0,0,0-.43-.1h-.05l.19-.08.37-.14.76-.3,1.52-.6,3-1.2,6.07-2.39Z" transform="translate(-236.83 -85)" style="fill: #e6a6a4"/>
          </g>
          <path d="M347.86,243.51a6,6,0,0,0-6.24.55c-3.52,2.86-2.29,6.81-3.61,13.27-.23,1.1-1.2,2.47-1.51,3.72-1.38,5.49-3.2,9.32-2.12,10.13,1.8,1.37,7.28,4.27,8.73,1.6.28-.51,1.56-1,1.11-4.09a12,12,0,0,1,.85-5.46c1.71-4.39,4.54-9,5.51-13.07C351.45,246.53,348.29,243.81,347.86,243.51Z" transform="translate(-236.83 -85)" style="fill: #ffb9b6"/>
          <g>
            <path d="M343.1,243.23a5.32,5.32,0,0,0-2.15,1c-4.11,3.34-2,7.83-4.45,14.64-.43,1.2-1.12,1.19-2.59,2.36-1.63,1.31-2.09,5.32-1.86,7.38a6.07,6.07,0,0,0,1.77,3.52c2.68,2.79,7.84,3.31,9.29.64.28-.51,1.56-1,1.11-4.09a12,12,0,0,1,.85-5.46c1.71-4.39,4.54-9,5.51-13.07a6.1,6.1,0,0,0-1.17-5,5.12,5.12,0,0,0-7.29.75A8.76,8.76,0,0,0,343.1,243.23Z" transform="translate(-236.83 -85)" style="fill: #894ef9"/>
            <path d="M340.84,244.59a18.46,18.46,0,0,0-3,2.06A3.27,3.27,0,0,0,337,250c.53,1.39,1.27,2.17,1.34,1.95S340.84,244.59,340.84,244.59Z" transform="translate(-236.83 -85)" style="fill: #894ef9"/>
          </g>
          <g>
            <path d="M350.84,246.28c1.45,4.3,2.78,8.65,4.17,13l-.19-.37c2.59,4.45,5.25,8.86,7.8,13.34a1,1,0,0,1-1.62,1.09c-3.2-4-6.29-8.16-9.44-12.24a.83.83,0,0,1-.08-.12l-.11-.24c-2-4.1-4-8.16-5.94-12.28a2.92,2.92,0,0,1,5.29-2.46A1.88,1.88,0,0,1,350.84,246.28Z" transform="translate(-236.83 -85)" style="fill: #ffb9b6"/>
            <g>
              <path d="M368.17,274.25c-1,0-2,.08-3,.1s-2,0-3,.13a1.31,1.31,0,0,1-1.41-1.2,1.29,1.29,0,0,1,1.2-1.4,1.13,1.13,0,0,1,.45,0c1,.27,1.93.46,2.9.69a26.11,26.11,0,0,0,2.91.53h0a.56.56,0,0,1-.08,1.11Z" transform="translate(-236.83 -85)" style="fill: #ffb9b6"/>
              <path d="M365.27,275.25a11.71,11.71,0,0,1-2,0,4.23,4.23,0,0,1-1.05-.23,2.06,2.06,0,0,1-.6-.34,1.29,1.29,0,0,1-.46-.91.74.74,0,0,1,1.48,0c0-.09-.09-.14-.06-.1a.46.46,0,0,0,.19.17,3.56,3.56,0,0,0,.73.31,10.08,10.08,0,0,0,1.75.38h0a.38.38,0,0,1,0,.76Z" transform="translate(-236.83 -85)" style="fill: #ffb9b6"/>
            </g>
          </g>
        </g>
        <g>
          <g>
            <path d="M347,227.36s1.18-2.93,6.18-.77,2.74,7.55,2.74,7.55Z" transform="translate(-236.83 -85)" style="fill: #ffe895"/>
            <path d="M347.12,227.1a2.06,2.06,0,0,0-.15.26l8.92,6.78a7.77,7.77,0,0,0,.51-3A39.85,39.85,0,0,0,347.12,227.1Z" transform="translate(-236.83 -85)" style="fill: #fc6d65"/>
          </g>
          <path d="M363.49,240.28s-3.71,3.33-7.77-2.22S342.12,223,337,228.36c0,0,1-4.16,6.36-2.56,6.14,1.82,8.56,4,11.39,6C358,234,362.67,238.38,363.49,240.28Z" transform="translate(-236.83 -85)" style="fill: #ffe895"/>
        </g>
      </g>
      <path d="M353.91,278.94H313l1-1.59c.24-.39,6-9.6,21.7-9.6,13.59,0,17.55,9.35,17.71,9.75ZM317,276.85h33.62c-1.6-2.42-5.85-7-15-7C325,269.84,319.3,274.37,317,276.85Z" transform="translate(-236.83 -85)" style="fill: #4a8abd"/>
    </g>
  </g>
  <path d="M427.62,157.17a10,10,0,0,1,1.74-6.34c-4.1-4.63-9.25-6.65-10.71-6.87a.28.28,0,0,0-.32.23,41.34,41.34,0,0,0,3.18,26.39,29.22,29.22,0,0,1,1.64,3.19c.08.15.15.3.24.46a9.16,9.16,0,0,1,.5,1.53c-.21-.66-.46-1.33-.74-2-.61-1.08-1.15-2.14-1.64-3.19a50.23,50.23,0,0,0-7.45-9.61c-7.1-5.7-14.93-9.84-24.33-8.92a26.24,26.24,0,0,0-8.27,2.11.29.29,0,0,0-.15.4,47.52,47.52,0,0,0,10.54,12.79,6.35,6.35,0,0,1,5.25-1.79c-1.22,1.51-1,3.34-1.64,4.77a66.72,66.72,0,0,0,16.18,8.9l.94.49c-6.29-2.08-13.3-2.46-19.35.62-4.32,2.21-7.79,4.94-10.2,9.3a.29.29,0,0,0,.09.39,17.51,17.51,0,0,0,8.49,2.52c.61,0,1.41.11,2.35.16a20.66,20.66,0,0,1,2.64-3.78l.42,3.88a37.58,37.58,0,0,0,10.87-1.35c-9.45,3.52-14.22,10.2-15.39,14.48a.32.32,0,0,0,.35.39,7.43,7.43,0,0,1,3.14.29,10,10,0,0,0-3.83,1.37.37.37,0,0,0-.16.26,16.05,16.05,0,0,0,1.8,9.89,17.65,17.65,0,0,0,1.37,2.13.29.29,0,0,0,.26.11,15.37,15.37,0,0,0,6.27-2.52A33.84,33.84,0,0,0,407,213.5c1-1,2-2,2.85-3a62.19,62.19,0,0,0,6.33-8.31,26.35,26.35,0,0,0,2.25-4.43c.08-.2.16-.4.26-.61a27.05,27.05,0,0,0,1.76-4.1,4.67,4.67,0,0,0,.49,3.08c.09.17.17.34.26.5l.7-.41a4.58,4.58,0,0,0,4.54.3c.14-.06.26-.11.39-.18a.34.34,0,0,0,0,.1c-.06.16-.12.33-.17.51a1.1,1.1,0,0,0-.05.4,1,1,0,0,0,0,.24,1.16,1.16,0,0,0,.15.43,1.32,1.32,0,0,0,.12.2s0,0,0,0l.05.07v.09c0,1.73.11,3.62.25,5.64.05.68.1,1.37.16,2.07l.18,1.78c.25,2.32.6,4.78,1.08,7.32.14.74.29,1.48.45,2.24,0,.07,0,.14.05.21l.27,1.19c.13.56.27,1.12.42,1.69V154.61C429,155.42,428.32,156.3,427.62,157.17ZM425.82,189l0,0h0Z" transform="translate(-236.83 -85)" style="fill: #d1baf7"/>
  <path d="M423.15,173.77c-.61-1.08-1.15-2.14-1.64-3.19A29.22,29.22,0,0,1,423.15,173.77Z" transform="translate(-236.83 -85)" style="fill: none"/>
  <path d="M423.89,175.76c-.21-.66-.46-1.33-.74-2,.08.15.15.3.24.46A9.16,9.16,0,0,1,423.89,175.76Z" transform="translate(-236.83 -85)" style="fill: none"/>
  <path d="M425.82,189l0,0h0Z" transform="translate(-236.83 -85)" style="fill: none"/>
  <path d="M429.79,108.58v46c-.77.81-1.47,1.69-2.17,2.56a10,10,0,0,1,1.74-6.34c-4.1-4.63-9.25-6.65-10.71-6.87a.28.28,0,0,0-.32.23,41.34,41.34,0,0,0,3.18,26.39,50.23,50.23,0,0,0-7.45-9.61c-7.1-5.7-14.93-9.84-24.33-8.92a26.24,26.24,0,0,0-8.27,2.11.29.29,0,0,0-.15.4,47.52,47.52,0,0,0,10.54,12.79,6.35,6.35,0,0,1,5.25-1.79c-1.22,1.51-1,3.34-1.64,4.77a66.72,66.72,0,0,0,16.18,8.9l.94.49c-6.29-2.08-13.3-2.46-19.35.62-4.32,2.21-7.79,4.94-10.2,9.3a.29.29,0,0,0,.09.39,17.51,17.51,0,0,0,8.49,2.52c.61,0,1.41.11,2.35.16a20.66,20.66,0,0,1,2.64-3.78l.42,3.88a37.58,37.58,0,0,0,10.87-1.35c-9.45,3.52-14.22,10.2-15.39,14.48a.32.32,0,0,0,.35.39,7.43,7.43,0,0,1,3.14.29,10,10,0,0,0-3.83,1.37.37.37,0,0,0-.16.26,16.05,16.05,0,0,0,1.8,9.89,17.65,17.65,0,0,0,1.37,2.13.29.29,0,0,0,.26.11,15.37,15.37,0,0,0,6.27-2.52A33.84,33.84,0,0,0,407,213.5c1-1,2-2,2.85-3a62.19,62.19,0,0,0,6.33-8.31,26.35,26.35,0,0,0,2.25-4.43c.08-.2.16-.4.26-.61a27.05,27.05,0,0,0,1.76-4.1,4.67,4.67,0,0,0,.49,3.08c.09.17.17.34.26.5l.7-.41a4.58,4.58,0,0,0,4.54.3c.14-.06.26-.11.39-.18a.34.34,0,0,0,0,.1c-.06.16-.12.33-.17.51a1.1,1.1,0,0,0-.05.4,1,1,0,0,0,0,.24,1.16,1.16,0,0,0,.15.43,1.32,1.32,0,0,0,.12.2s0,0,0,0l.05.07v.09c0,1.73.11,3.62.25,5.64.05.68.1,1.37.16,2.07l.18,1.78c.25,2.32.6,4.78,1.08,7.32.14.74.29,1.48.45,2.24,0,.07,0,.14.05.21l.27,1.19c.13.56.27,1.12.42,1.69v79.75a168.64,168.64,0,0,0-52.52,1.26c-21.3,4-42.09,10.26-63.4,14.29A197.65,197.65,0,0,1,261.25,319a130.78,130.78,0,0,1-22.92-3.84V108.58A23.65,23.65,0,0,1,261.91,85H406.22A23.64,23.64,0,0,1,429.79,108.58Z" transform="translate(-236.83 -85)" style="fill: none"/>
</svg>
